<?xml version="1.0" encoding="utf-8"?>
<!-- Generator: Adobe Illustrator 17.1.0, SVG Export Plug-In . SVG Version: 6.00 Build 0)  -->
<!DOCTYPE svg PUBLIC "-//W3C//DTD SVG 1.1//EN" "http://www.w3.org/Graphics/SVG/1.1/DTD/svg11.dtd">
<svg version="1.1" id="ic_cov19" xmlns="http://www.w3.org/2000/svg" xmlns:xlink="http://www.w3.org/1999/xlink" x="0px" y="0px"
	 viewBox="0 0 24 24" enable-background="new 0 0 24 24" xml:space="preserve">
<g id="Group_8935" display="none">
	<g id="Group_8934" display="inline">
		<path id="Path_18928" fill="#5C4B7D" d="M12,2C6.5,2,2,6.5,2,12s4.5,10,10,10s10-4.5,10-10S17.5,2,12,2z M12,21.3
			c-5.1,0-9.3-4.1-9.3-9.3S6.9,2.8,12,2.8s9.3,4.1,9.3,9.3S17.1,21.3,12,21.3L12,21.3z"/>
		<path id="Path_18929" fill="#5C4B7D" d="M12,3.5c-4.7,0-8.5,3.8-8.5,8.5s3.8,8.5,8.5,8.5s8.5-3.8,8.5-8.5S16.7,3.5,12,3.5z M8,9.2
			h4.5v0.9H8V9.2z M13.1,13.3h-3V18H9v-5.8h4c1.3,0.1,2.5-0.9,2.6-2.2c0-0.1,0-0.3,0-0.4c0.1-1.3-0.9-2.5-2.2-2.6
			c-0.1,0-0.3,0-0.4,0h-1.2l-3,0V6h4.3c1.9-0.1,3.6,1.3,3.7,3.2c0,0.1,0,0.3,0,0.4c0.1,1.9-1.4,3.6-3.3,3.7
			C13.4,13.3,13.3,13.3,13.1,13.3z"/>
	</g>
</g>
<path id="Rectangle_4543" fill="none" d="M0,0h24v24H0V0z"/>
<g>
	<g>
		<path fill="#082359" d="M14,8.8v-3c-0.3,0-0.6,0.1-0.9,0.1c0.1-0.2,0.1-0.4,0.1-0.7C13.2,5,13,4.8,12.9,4.7
			c-0.1-0.1-0.2-0.1-0.3-0.1c-0.1,0-0.2,0-0.3,0C12.1,4.6,12,4.8,11.9,5c-0.1,0.2-0.1,0.4,0,0.6c0.1,0.2,0.3,0.4,0.4,0.5
			c0,0,0.1,0,0.1,0c-0.4,0.2-0.8,0.4-1.1,0.6l-1.1-2c0.2-1-0.7-1.4-1.3-1C8.1,4.3,8.5,5.3,9.3,5.3c0,0,1.4,1.5,1.5,1.8
			C10.5,7.3,10.2,7.6,9.9,8c-0.1-0.8-1-1.2-1.5-0.7C8,7.8,8.8,8.6,9.5,8.5C9.3,8.9,9.1,9.3,8.9,9.7l-2.1-1c0,0,0-0.1,0-0.1
			C6.6,8.1,6.1,7.9,5.6,8.1C5.2,8.3,4.9,8.9,5.2,9.3c0.3,0.5,0.9,0.6,1.2,0.3c0,0,2.1,0.5,2.3,0.5c-0.1,0.4-0.2,0.8-0.2,1.3
			C8,10.9,6.9,11,6.9,11.7c-0.1,0.6,1,1,1.5,0.4c0,0.4,0.1,0.9,0.2,1.3c-0.1,0-2.3,0.4-2.3,0.4c-0.7-0.5-1.6,0.1-1.4,0.9
			c0.3,0.9,1.3,0.8,1.6,0.1l2.2-0.9c0.1,0.4,0.3,0.8,0.5,1.2c-0.4-0.1-1,0.1-1.2,0.6c-0.3,0.9,1.1,1.3,1.6,0
			c0.3,0.5,0.7,0.9,1.2,1.2c-0.2,0.3-1.3,1.5-1.5,1.8c-0.8,0-1.2,1-0.5,1.6c0.7,0.5,1.6-0.2,1.3-1c0.1-0.1,1.1-1.9,1.1-2
			c0.4,0.2,0.7,0.4,1.1,0.6c-0.6,0.3-0.8,1.4-0.1,1.6c0.7,0.2,1.2-0.7,0.8-1.4c0.3,0.1,0.6,0.1,0.8,0.1v-3c-1.5-0.3-2.6-1.6-2.6-3.2
			c0-1,0.4-1.8,1-2.4C12.8,9.2,13.4,8.9,14,8.8z M12.4,5.9C12.4,5.9,12.3,5.9,12.4,5.9c-0.2-0.1-0.2-0.2-0.3-0.4
			c-0.1-0.2-0.1-0.4,0-0.5s0.2-0.3,0.3-0.3c0.3-0.1,0.6,0.1,0.7,0.5C13.2,5.8,12.9,6.3,12.4,5.9z M9.7,5C9.1,5.5,8.2,4.5,9,3.9
			C9.8,3.4,10.4,4.5,9.7,5z M6.1,9.5L6.1,9.5c-0.5,0.2-1-0.3-0.8-0.9c0.2-0.5,0.8-0.6,1.1-0.2h0C6.8,8.9,6.6,9.4,6.1,9.5z M7.8,12.3
			c-0.9,0-0.8-1.1,0-1c0.1,0,0.3,0.1,0.4,0.1h0C8.6,11.7,8.4,12.2,7.8,12.3z M6.3,14.9c-0.3,0.4-1,0.3-1.1-0.2
			c-0.1-0.5,0.3-1,0.8-0.8c0.3,0.1,0.5,0.4,0.5,0.6C6.5,14.6,6.4,14.8,6.3,14.9z M9.4,15.9c-0.3,0.8-1.4,0.5-1.1-0.2
			C8.6,15,9.8,15.1,9.4,15.9z M9.7,8.2C9.6,8.3,9.4,8.4,9.2,8.4c0,0,0,0,0,0c-0.5,0-0.9-0.6-0.6-0.9C9.1,6.8,10.1,7.7,9.7,8.2z
			 M9,20.1c-0.8-0.6,0.1-1.6,0.8-1.1C10.4,19.4,9.8,20.6,9,20.1z M12.8,18c0.5,0.1,0.3,1.5-0.4,1.3C11.7,19,12.3,17.8,12.8,18z"/>
	</g>
	<g>
		<path fill="#A60311" d="M15.4,15.2v3c1.5-0.2,2.7-0.8,3.7-1.8L17,14.3C16.6,14.8,16,15.1,15.4,15.2z"/>
	</g>
	<g>
		<path fill="#A60311" d="M15.4,5.8v3C16,8.9,16.5,9.2,17,9.7l2.1-2.1C18.1,6.6,16.8,5.9,15.4,5.8z"/>
	</g>
	<g>
		<path fill="#51718C" d="M8.5,11.4C8,10.9,6.9,11,6.9,11.7c-0.1,0.6,1,1,1.5,0.4c0,0,0-0.1,0-0.1C8.4,11.8,8.4,11.6,8.5,11.4z
			 M7.8,12.3c-0.9,0-0.8-1.1,0-1c0.1,0,0.3,0.1,0.4,0.1h0C8.6,11.7,8.4,12.2,7.8,12.3z M8.6,13.4c-0.2,0-2.3,0.4-2.3,0.4
			c-0.7-0.5-1.6,0.1-1.4,0.9c0.3,0.9,1.3,0.8,1.6,0.1l2.2-0.9C8.7,13.8,8.6,13.6,8.6,13.4z M6.3,14.9c-0.3,0.4-1,0.3-1.1-0.2
			c-0.1-0.5,0.3-1,0.8-0.8c0.3,0.1,0.5,0.4,0.5,0.6C6.5,14.6,6.4,14.8,6.3,14.9z M8.9,9.7l-2.1-1c0,0,0-0.1,0-0.1
			C6.6,8.1,6.1,7.9,5.6,8.1C5.2,8.3,4.9,8.9,5.2,9.3c0.3,0.5,0.9,0.6,1.2,0.3c0,0,2.1,0.5,2.3,0.5C8.8,10,8.8,9.8,8.9,9.7
			C8.9,9.6,8.9,9.6,8.9,9.7z M6.1,9.5L6.1,9.5c-0.5,0.2-1-0.3-0.8-0.9c0.2-0.5,0.8-0.6,1.1-0.2h0C6.8,8.9,6.6,9.4,6.1,9.5z
			 M9.3,15.1c-0.4-0.1-1,0.1-1.2,0.6c-0.3,0.9,1.1,1.3,1.6,0C9.5,15.5,9.4,15.3,9.3,15.1z M9.4,15.9c-0.3,0.8-1.4,0.5-1.1-0.2
			C8.6,15,9.8,15.1,9.4,15.9z M11.3,17.2c-0.2-0.1-0.3-0.2-0.4-0.3c-0.2,0.3-1.3,1.5-1.5,1.8c-0.8,0-1.2,1-0.5,1.6
			c0.7,0.5,1.6-0.2,1.3-1C10.3,19.2,11.2,17.4,11.3,17.2z M9,20.1c-0.8-0.6,0.1-1.6,0.8-1.1C10.4,19.4,9.8,20.6,9,20.1z M13.1,18
			c-0.3-0.1-0.5-0.2-0.8-0.3c0,0,0.1,0,0.1,0.1c-0.6,0.3-0.8,1.4-0.1,1.6C13,19.6,13.5,18.7,13.1,18z M12.4,19.2
			c-0.7-0.3-0.1-1.5,0.4-1.3C13.3,18.1,13.1,19.4,12.4,19.2z M13.1,5.9c0.1-0.2,0.1-0.4,0.1-0.7C13.2,5,13,4.8,12.9,4.7
			c-0.1-0.1-0.2-0.1-0.3-0.1c-0.1,0-0.2,0-0.3,0C12.1,4.6,12,4.8,11.9,5c-0.1,0.2-0.1,0.4,0,0.6c0.1,0.2,0.3,0.4,0.4,0.5
			c0,0,0.1,0,0.1,0c-0.3,0.1-0.7,0.3-1,0.5c0.8-0.4,1.6-0.7,2.5-0.8v0C13.7,5.8,13.4,5.9,13.1,5.9z M12.4,5.9
			C12.4,5.9,12.3,5.9,12.4,5.9c-0.2-0.1-0.2-0.2-0.3-0.4c-0.1-0.2-0.1-0.4,0-0.5s0.2-0.3,0.3-0.3c0.3-0.1,0.6,0.1,0.7,0.5
			C13.2,5.8,12.9,6.3,12.4,5.9z M10.2,4.7c0.2-1-0.7-1.4-1.3-1C8.1,4.3,8.5,5.3,9.3,5.3c0,0,1.4,1.5,1.5,1.8
			c-0.3,0.2-0.6,0.5-0.8,0.8c0.4-0.5,0.9-0.8,1.4-1.2c-0.1,0-0.1,0.1-0.2,0.1L10.2,4.7z M9.7,5C9.1,5.5,8.2,4.5,9,3.9
			C9.8,3.4,10.4,4.5,9.7,5z M8.5,7.3C8,7.8,8.8,8.6,9.5,8.5c0,0.1-0.1,0.1-0.1,0.2C9.6,8.4,9.8,8.1,10,7.8C10,7.9,10,7.9,9.9,8
			C9.8,7.2,8.9,6.8,8.5,7.3z M9.7,8.2C9.6,8.3,9.4,8.4,9.2,8.4c0,0,0,0,0,0c-0.5,0-0.9-0.6-0.6-0.9C9.1,6.8,10.1,7.7,9.7,8.2z"/>
	</g>
	<g>
		<path fill="#082359" d="M14,21.9L14,21.9c-0.4,0-0.7-0.3-0.7-0.7V2.7c0-0.4,0.3-0.7,0.7-0.7h0c0.4,0,0.7,0.3,0.7,0.7v18.5
			C14.7,21.6,14.4,21.9,14,21.9z"/>
	</g>
</g>
</svg>
