<?xml version="1.0" encoding="utf-8"?>
<!-- Generator: Adobe Illustrator 17.1.0, SVG Export Plug-In . SVG Version: 6.00 Build 0)  -->
<!DOCTYPE svg PUBLIC "-//W3C//DTD SVG 1.1//EN" "http://www.w3.org/Graphics/SVG/1.1/DTD/svg11.dtd">
<svg version="1.1" id="ic_zcov19" xmlns="http://www.w3.org/2000/svg" xmlns:xlink="http://www.w3.org/1999/xlink" x="0px" y="0px"
	 viewBox="0 0 24 24" enable-background="new 0 0 24 24" xml:space="preserve">
<g id="Group_8933">
	<g id="Group_8932">
		<path id="Path_18926" fill="#5C4B7D" d="M12,2C6.5,2,2,6.5,2,12s4.5,10,10,10s10-4.5,10-10S17.5,2,12,2z M12,21.3
			c-5.1,0-9.3-4.1-9.3-9.3S6.9,2.8,12,2.8s9.3,4.1,9.3,9.3S17.1,21.3,12,21.3z"/>
		<path id="Path_18927" fill="#5C4B7D" d="M12,3.5c-4.7,0-8.5,3.8-8.5,8.5s3.8,8.5,8.5,8.5s8.5-3.8,8.5-8.5S16.7,3.5,12,3.5z
			 M7.6,13.2v-0.7l4.7-5.6H7.7V6h5.9v0.8L9,12.3l4.7,0v0.8H7.6z M13.3,17.1c0.2,0.3,0.4,0.5,0.7,0.7c0.3,0.2,0.6,0.2,1,0.2
			c0.3,0,0.6-0.1,0.8-0.2c0.3-0.1,0.5-0.3,0.8-0.6l0.7,0.8c-0.4,0.4-0.8,0.7-1.2,0.8C15.9,18.9,15.4,19,15,19
			c-0.9,0-1.6-0.3-2.1-0.8c-0.5-0.5-0.8-1.3-0.8-2.1c0-0.6,0.1-1,0.4-1.5c0.3-0.4,0.6-0.8,1.1-1c0.5-0.3,1-0.4,1.5-0.4
			c0.5,0,0.9,0.1,1.3,0.3c0.4,0.2,0.8,0.5,1.1,0.8L16.7,15c-0.5-0.5-1.1-0.8-1.7-0.8c-0.5,0-1,0.2-1.3,0.5c-0.4,0.4-0.5,0.8-0.5,1.3
			C13.1,16.4,13.2,16.8,13.3,17.1z"/>
	</g>
</g>
<path id="Rectangle_4542" fill="none" d="M0,0h24v24H0V0z"/>
</svg>
