<?xml version="1.0" encoding="utf-8"?>
<!-- Generator: Adobe Illustrator 17.1.0, SVG Export Plug-In . SVG Version: 6.00 Build 0)  -->
<!DOCTYPE svg PUBLIC "-//W3C//DTD SVG 1.1//EN" "http://www.w3.org/Graphics/SVG/1.1/DTD/svg11.dtd">
<svg version="1.1" id="Layer_1" xmlns="http://www.w3.org/2000/svg" xmlns:xlink="http://www.w3.org/1999/xlink" x="0px" y="0px"
	 viewBox="0 0 300 100" enable-background="new 0 0 300 100" xml:space="preserve">
<title>Artboard</title>
<desc>Created with Sketch.</desc>
<g id="Artboard" display="none">
	<g id="COVID19_Logo-01" transform="translate(5.000000, 6.966292)" display="inline">
		<path id="Shape" fill="#FFFFFF" d="M35.5,0L0,7.4V56c0,7.1,7.4,13.9,15.4,19.1c6.3,4.1,12.8,7.6,19.6,10.7l0.6,0.2l0.6-0.2
			C37.5,85.3,71,71.2,71,56V7.4L35.5,0z"/>
		<path id="Shape_1_" fill="#5E4778" d="M35.5,0L0,7.4V56c0,7.1,7.4,13.9,15.4,19.1c6.3,4.1,12.8,7.6,19.6,10.7l0.6,0.2l0.6-0.2
			C37.5,85.3,71,71.2,71,56V7.4L35.5,0z M68.1,56c0,10.6-23.1,21.8-32.7,25.6L35,81.4l-0.2-0.1l-0.3-0.1l-0.2-0.1L34,81l-0.1,0
			l-0.4-0.2l-0.1,0l-0.4-0.2l-0.1,0l-0.5-0.2h0l-0.5-0.2h0c-4.8-2.1-11-5.2-16.5-8.8l-0.6-0.4L14,70.4L13.4,70l0,0l-0.6-0.4l0,0
			L12.2,69l0,0l-0.6-0.4l-0.1,0L11,68.2l-0.1,0l-0.5-0.4l-0.1-0.1l-0.5-0.4l-0.1-0.1l-0.4-0.4l-0.1-0.1l-0.4-0.4l-0.1-0.1l-0.4-0.4
			l-0.1-0.1l-0.4-0.4l-0.1-0.1l-0.4-0.4l-0.1-0.1l-0.3-0.4l-0.1-0.1l-0.3-0.4l-0.1-0.1l-0.3-0.4L6,63.3L5.7,63l-0.1-0.2l-0.3-0.3
			l-0.1-0.2L5,62l-0.1-0.2l-0.2-0.3l-0.1-0.2C4.5,61.1,4.4,61,4.3,61l-0.1-0.2c-0.1-0.1-0.1-0.2-0.1-0.3L4,60.2
			c0-0.1-0.1-0.2-0.1-0.3c0-0.1-0.1-0.1-0.1-0.2c0-0.1-0.1-0.2-0.1-0.3c0-0.1-0.1-0.1-0.1-0.2c0-0.1-0.1-0.2-0.1-0.2
			c0-0.1-0.1-0.2-0.1-0.2c0-0.1-0.1-0.2-0.1-0.2c0-0.1,0-0.2-0.1-0.2c0-0.1,0-0.1-0.1-0.2c0-0.1,0-0.2-0.1-0.3c0-0.1,0-0.1,0-0.2
			c0-0.1,0-0.2,0-0.3c0-0.1,0-0.1,0-0.2c0-0.1,0-0.2-0.1-0.3c0-0.1,0-0.1,0-0.2V10l32.5-5.2h0.3L68.1,10L68.1,56L68.1,56L68.1,56z"
			/>
		<path id="Shape_2_" fill="#5E4778" d="M35.5,8L11,12l-5,0.8v41.9c0,9.7,20.8,20,29.5,23.4c5-2,14.2-6.3,21-11.4
			c0.5-0.4,1-0.8,1.5-1.2c2.3-1.9,4.3-3.9,5.5-5.9c1-1.6,1.5-3.2,1.5-4.8V12.8L35.5,8z M21.3,30.3h17.2v3.6H21.3V30.3z M54.8,31.9
			c0,8.5-5.9,14-14.1,14H29.5v17.9H25V41.9h15.2c6.1,0,10-3.7,10-9.9c0-6.2-4-9.7-10-9.7h-4.7l-11.3,0v-4.1h16.5
			C48.9,18.2,54.8,23.5,54.8,31.9L54.8,31.9z"/>
		<path id="Path" fill="#5E4778" d="M36,0v4.8h0.1l32,5.2v46c0,10.6-22.7,21.8-32.2,25.6V86l0.6-0.2C38,85.3,71,71.2,71,56V7.4L36,0
			z"/>
		<path id="Shape_3_" fill="#5E4778" d="M40.7,45.5H29.4v2.1c1.9,1.5,3.9,2.9,6.1,4.1c7.1,4,16.3,6.8,28,7.3c1-1.6,1.5-3.2,1.5-4.8
			V12.7L35.5,8L11,11.9c1.1,9.1,4.5,21.7,13.9,31.6v-2h15.2c6.1,0,10-3.7,10-9.8c0-6.1-4-9.7-10-9.7h-4.7l-11.3,0v-4h16.5
			c8.2,0,14.1,5.3,14.1,13.6C54.7,40.1,48.9,45.5,40.7,45.5L40.7,45.5z M35.5,30.1h2.9v3.5H21.2v-3.5H35.5z"/>
		<path id="Path_1_" fill="#3D3144" d="M34.5,81.4l-0.2-0.1L34,81.2l-0.2-0.1L33.5,81l-0.1,0L33,80.8l-0.1,0l-0.4-0.2l-0.1,0
			L32,80.3h-0.1l-0.5-0.2h0c-4.7-2.1-10.8-5.2-16.2-8.9l-0.6-0.4l-0.6-0.5l-0.6-0.4l0,0l-0.6-0.4l0,0L12.1,69l0,0l-0.6-0.4l-0.1,0
			l-0.5-0.4l-0.1,0l-0.5-0.4l-0.1-0.1l-0.5-0.4l-0.1-0.1l-0.4-0.4l-0.1-0.1l-0.4-0.4l-0.1-0.1l-0.4-0.4l-0.1-0.1l-0.4-0.4l-0.1-0.1
			l-0.4-0.4l-0.1-0.1l-0.3-0.4l-0.1-0.1l-0.3-0.4l-0.1-0.1L6,63.4l-0.1-0.1L5.6,63l-0.1-0.2l-0.2-0.3l-0.1-0.2L4.9,62l-0.1-0.2
			l-0.2-0.3l-0.1-0.2c-0.1-0.1-0.1-0.2-0.2-0.3l-0.1-0.2L4,60.5l-0.1-0.2c0-0.1-0.1-0.2-0.1-0.3c0-0.1-0.1-0.1-0.1-0.2
			c0-0.1-0.1-0.2-0.1-0.3c0-0.1-0.1-0.1-0.1-0.2c0-0.1-0.1-0.2-0.1-0.2c0-0.1-0.1-0.2-0.1-0.2c0-0.1-0.1-0.2-0.1-0.3
			c0-0.1,0-0.2-0.1-0.2c0-0.1,0-0.1-0.1-0.2c0-0.1,0-0.2-0.1-0.3c0-0.1,0-0.1,0-0.2c0-0.1,0-0.2,0-0.3c0-0.1,0-0.1,0-0.2
			c0-0.1,0-0.2-0.1-0.3c0-0.1,0-0.1,0-0.2V10l32-5.2H35V0L0,7.4V56c0,7.1,7.3,13.9,15.1,19.1c6.2,4.1,12.6,7.6,19.3,10.7L35,86v-4.5
			L34.5,81.4"/>
		<path id="Path_2_" fill="#3D3144" d="M35.8,52.1c-2.2-1.2-4.2-2.6-6.1-4.1v15.8h-4.5V43.9c-9.5-10-12.9-22.7-14-31.9L6,12.8v41.9
			c0,9.7,21,20,29.8,23.3c5.1-2,14.3-6.3,21.1-11.4c0.5-0.4,1-0.8,1.5-1.2c2.3-1.9,4.3-3.9,5.6-5.9C52.2,58.9,43,56.2,35.8,52.1"/>
		<polygon id="Path_3_" fill="#FFFFFF" points="238,19 252,19 263.3,35.5 274.7,19 288.9,19 270.9,44.6 290,72 275.7,72 263.3,54.6 
			251,72 237,72 255.9,45.1 		"/>
		<polygon id="Path_4_" fill="#FFFFFF" points="230,19 208.7,72 196,72 175,19 188.1,19 202.5,59 217.3,19 		"/>
		<rect id="Rectangle" x="152" y="19" fill="#FFFFFF" width="12" height="53"/>
		<path id="Shape_4_" fill="#FFFFFF" d="M114.4,20.1L114.4,20.1L94,20v53h12.1V57.9h8.4c13.3,0,23.6-4.4,23.6-19.5
			C138,19.8,120.8,20.1,114.4,20.1z M126.5,39.4c-0.1,5.2-3,8.6-12,8.4h-8.4v-18h8.4C123.7,29.8,126.6,33.1,126.5,39.4z"/>
	</g>
</g>
<g>
	<g>
		<path fill="#082359" d="M43.9,35.8V23c-1.3,0.1-2.5,0.3-3.7,0.6c0.4-0.7,0.6-1.9,0.3-3.1c-0.2-1-0.7-1.8-1.4-2.3
			c-0.4-0.3-0.8-0.5-1.2-0.6c-0.4-0.1-0.9,0-1.3,0.1c-0.8,0.3-1.5,0.9-1.7,1.7c-0.3,0.9-0.2,1.8,0.2,2.8c0.4,0.9,1.1,1.7,1.7,2.1
			c0.1,0.1,0.2,0.1,0.4,0.2c-1.7,0.7-3.4,1.5-4.9,2.5l-4.9-8.8c0.8-4.2-2.9-6-5.6-4.1c-3.3,2.2-1.4,6.7,2,6.7c0,0,5.9,6.6,6.6,7.5
			c-1.4,1.1-2.8,2.4-4,3.8c-0.5-3.3-4.4-5.1-6.2-2.8c-1.8,2.3,1.3,5.8,4.4,5.3c-1,1.5-1.9,3.1-2.6,4.8l-9-4.3c0-0.1-0.1-0.2-0.1-0.3
			c-0.9-2-3-2.9-4.8-2.1c-1.8,0.8-3,3.3-1.9,5.4c1.1,2.1,3.7,2.4,5.3,1.2c0,0,9.2,2.2,9.8,2.3c-0.5,1.7-0.9,3.5-1,5.4
			c-2.2-2.3-6.6-1.7-6.8,1.3c-0.2,2.7,4.2,4.2,6.6,1.7c0,1.9,0.3,3.7,0.7,5.5c-0.5,0.1-9.9,1.7-9.9,1.7c-2.8-2.1-6.8,0.2-5.8,3.9
			c1.2,3.7,5.7,3.6,7,0.4l9.3-3.7c0.6,1.8,1.3,3.5,2.3,5.1c-1.6-0.5-4.3,0.5-5,2.5c-1.4,3.9,4.8,5.6,6.7,0.1c1.4,2,3.2,3.8,5.1,5.2
			c-0.9,1.1-5.7,6.4-6.6,7.5c-3.5,0.2-5.1,4.4-2,6.7c3.2,2.2,6.7-0.8,5.6-4.2c0.3-0.5,4.6-8.2,4.9-8.7c1.5,1,3.2,1.8,4.9,2.5
			c-2.7,1.3-3.5,5.8-0.5,6.9c3,0.8,4.9-3.1,3.5-5.9c1.2,0.3,2.4,0.5,3.6,0.6V63.4c-6.4-1.3-11.1-6.9-11.2-13.7
			c0-4.1,1.7-7.7,4.2-10.2C38.9,37.6,41.3,36.3,43.9,35.8z M37.1,23.7c-0.1,0-0.2-0.1-0.3-0.2c-0.4-0.4-0.8-0.8-1-1.4
			c-0.3-0.7-0.3-1.5-0.1-2.1c0.2-0.6,0.7-1.1,1.3-1.3c1.3-0.4,2.6,0.6,2.9,2.1C40.4,22.9,39.1,25,37.1,23.7z M25.6,19.6
			c-2.7,2.1-6.6-2.2-3.3-4.6C25.8,12.6,28.5,17.6,25.6,19.6z M10.2,39.1L10.2,39.1c-2.2,0.7-4.2-1.4-3.4-3.7
			c0.8-2.2,3.5-2.6,4.9-0.8h0C13.1,36.3,12.2,38.6,10.2,39.1z M17.2,50.8c-3.9,0.1-3.6-4.8,0.1-4.3c0.6,0.1,1.2,0.3,1.6,0.5h0
			C21,48.3,19.9,50.6,17.2,50.8z M10.9,62.1c-1.4,1.8-4.2,1.3-4.9-1c-0.6-2.3,1.4-4.3,3.6-3.5c1.3,0.4,2,1.5,2,2.6
			C11.6,60.9,11.4,61.6,10.9,62.1z M24.4,66.3c-1.5,3.3-5.9,2.1-4.9-0.7C20.7,62.6,26,63,24.4,66.3z M25.4,33.4
			c-0.4,0.5-1.1,0.7-1.9,0.6c0,0,0,0,0,0c-2.1-0.1-3.8-2.5-2.6-4C22.8,27.5,27,31.3,25.4,33.4z M22.4,84.3c-3.3-2.5,0.6-6.7,3.3-4.6
			C28.6,81.6,25.8,86.6,22.4,84.3z M38.8,75.2c2.3,0.6,1.4,6.2-1.7,5.4C34,79.5,36.5,74.4,38.8,75.2z"/>
	</g>
	<g>
		<path fill="#A60311" d="M49.8,63.4v12.8c6.2-0.7,11.8-3.5,16-7.7l-9-9C54.9,61.4,52.5,62.8,49.8,63.4z"/>
	</g>
	<g>
		<path fill="#A60311" d="M49.8,23v12.8c2.7,0.6,5.1,2,7,3.9l9-9C61.6,26.5,56,23.6,49.8,23z"/>
	</g>
	<g>
		<path fill="#51718C" d="M20.2,47.2c-2.2-2.3-6.6-1.7-6.8,1.3c-0.2,2.7,4.2,4.2,6.6,1.7c0-0.1,0-0.3,0-0.5
			C20.1,48.9,20.1,48,20.2,47.2z M17.2,50.8c-3.9,0.1-3.6-4.8,0.1-4.3c0.6,0.1,1.2,0.3,1.6,0.5h0C21,48.3,19.9,50.6,17.2,50.8z
			 M20.8,55.7c-0.7,0.1-9.8,1.7-9.8,1.7c-2.8-2.1-6.8,0.2-5.8,3.9c1.2,3.7,5.7,3.6,7,0.4l9.3-3.7C21.2,57.2,21,56.5,20.8,55.7z
			 M10.9,62.1c-1.4,1.8-4.2,1.3-4.9-1c-0.6-2.3,1.4-4.3,3.6-3.5c1.3,0.4,2,1.5,2,2.6C11.6,60.9,11.4,61.6,10.9,62.1z M22,39.6
			l-9-4.3c0-0.1-0.1-0.2-0.1-0.3c-0.9-2-3-2.9-4.8-2.1c-1.8,0.8-3,3.3-1.9,5.4c1.1,2.1,3.7,2.4,5.3,1.2c0,0,9.2,2.2,9.8,2.3
			c0.3-0.8,0.6-1.7,0.9-2.5C22.1,39.4,22.1,39.5,22,39.6z M10.2,39.1L10.2,39.1c-2.2,0.7-4.2-1.4-3.4-3.7c0.8-2.2,3.5-2.6,4.9-0.8h0
			C13.1,36.3,12.2,38.6,10.2,39.1z M23.7,63c-1.6-0.5-4.3,0.5-5,2.5c-1.4,3.9,4.8,5.6,6.7,0.1C24.8,64.8,24.2,63.9,23.7,63z
			 M24.4,66.3c-1.5,3.3-5.9,2.1-4.9-0.7C20.7,62.6,26,63,24.4,66.3z M32.5,72.1c-0.7-0.4-1.3-0.8-1.9-1.3c-0.9,1.1-5.7,6.4-6.6,7.5
			c-3.5,0.2-5.1,4.4-2,6.7c3.2,2.2,6.7-0.8,5.6-4.2C27.9,80.4,32.1,72.7,32.5,72.1z M22.4,84.3c-3.3-2.5,0.6-6.7,3.3-4.6
			C28.6,81.6,25.8,86.6,22.4,84.3z M40.3,75.6c-1.2-0.3-2.3-0.7-3.5-1.2c0.1,0.1,0.3,0.1,0.5,0.2c-2.7,1.3-3.5,5.8-0.5,6.9
			C39.8,82.3,41.7,78.4,40.3,75.6z M37.1,80.7c-3.1-1.1-0.5-6.3,1.7-5.4C41.1,75.8,40.2,81.5,37.1,80.7z M40.3,23.7
			c0.4-0.7,0.6-1.9,0.3-3.1c-0.2-1-0.7-1.8-1.4-2.3c-0.4-0.3-0.8-0.5-1.2-0.6c-0.4-0.1-0.9,0-1.3,0.1c-0.8,0.3-1.5,0.9-1.7,1.7
			c-0.3,0.9-0.2,1.8,0.2,2.8c0.4,0.9,1.1,1.7,1.7,2.1c0.1,0.1,0.2,0.1,0.4,0.2c-1.5,0.6-2.9,1.3-4.2,2.1c3.3-1.9,6.9-3.2,10.8-3.6
			V23C42.7,23.1,41.4,23.4,40.3,23.7z M37.1,23.7c-0.1,0-0.2-0.1-0.3-0.2c-0.4-0.4-0.8-0.8-1-1.4c-0.3-0.7-0.3-1.5-0.1-2.1
			c0.2-0.6,0.7-1.1,1.3-1.3c1.3-0.4,2.6,0.6,2.9,2.1C40.4,22.9,39.1,25,37.1,23.7z M27.5,18.3c0.8-4.2-2.9-6-5.6-4.1
			c-3.3,2.2-1.4,6.7,2,6.7c0,0,5.9,6.6,6.6,7.5c-1.3,1-2.5,2.1-3.5,3.3c1.8-2,3.9-3.6,6.1-5c-0.3,0.1-0.5,0.3-0.7,0.4L27.5,18.3z
			 M25.6,19.6c-2.7,2.1-6.6-2.2-3.3-4.6C25.8,12.6,28.5,17.6,25.6,19.6z M20.2,29.4c-1.8,2.3,1.3,5.8,4.4,5.3
			c-0.1,0.2-0.3,0.4-0.4,0.7c0.8-1.3,1.8-2.5,2.8-3.6c-0.2,0.2-0.4,0.3-0.5,0.5C26,28.9,22,27.1,20.2,29.4z M25.4,33.4
			c-0.4,0.5-1.1,0.7-1.9,0.6c0,0,0,0,0,0c-2.1-0.1-3.8-2.5-2.6-4C22.8,27.5,27,31.3,25.4,33.4z"/>
	</g>
	<g>
		<path fill="#082359" d="M44,92.3L44,92.3c-1.7,0-3-1.3-3-2.9V9.9C41,8.3,42.3,7,43.9,7H44c1.6,0,2.9,1.3,2.9,2.9v79.5
			C46.9,91,45.6,92.3,44,92.3z"/>
	</g>
</g>
<g>
	<path fill="#FFFFFF" d="M130.6,41.9l-4.3,4.1c-3-3.1-6.3-4.7-10-4.7c-3.1,0-5.7,1.1-7.9,3.2c-2.1,2.1-3.2,4.8-3.2,7.9
		c0,2.2,0.5,4.1,1.4,5.8c1,1.7,2.3,3,4,4c1.7,1,3.7,1.4,5.8,1.4c1.8,0,3.4-0.3,4.9-1c1.5-0.7,3.1-1.9,4.9-3.7l4.2,4.4
		c-2.4,2.4-4.7,4-6.8,4.9c-2.1,0.9-4.6,1.4-7.3,1.4c-5.1,0-9.2-1.6-12.5-4.8c-3.2-3.2-4.8-7.3-4.8-12.4c0-3.3,0.7-6.1,2.2-8.7
		c1.5-2.5,3.6-4.6,6.3-6.1s5.7-2.3,8.9-2.3c2.7,0,5.3,0.6,7.8,1.7C126.6,38.2,128.8,39.8,130.6,41.9z"/>
	<path fill="#FFFFFF" d="M151.4,35.4c4.6,0,8.6,1.7,11.9,5c3.3,3.3,5,7.4,5,12.2c0,4.8-1.6,8.8-4.9,12.1c-3.3,3.3-7.3,4.9-11.9,4.9
		c-4.9,0-9-1.7-12.2-5.1c-3.2-3.4-4.9-7.4-4.9-12.1c0-3.1,0.8-6,2.3-8.6c1.5-2.6,3.6-4.7,6.2-6.2C145.5,36.1,148.4,35.4,151.4,35.4z
		 M151.4,41.4c-3,0-5.6,1.1-7.6,3.1c-2.1,2.1-3.1,4.8-3.1,8c0,3.6,1.3,6.5,3.9,8.6c2,1.6,4.3,2.5,6.9,2.5c2.9,0,5.5-1.1,7.5-3.2
		c2.1-2.1,3.1-4.8,3.1-7.9c0-3.1-1-5.7-3.1-7.9C156.9,42.5,154.4,41.4,151.4,41.4z"/>
	<path fill="#FFFFFF" d="M171.7,36.2h6.4l8.2,23.2l8.3-23.2h6.4l-11.8,32.6h-6L171.7,36.2z"/>
	<path fill="#FFFFFF" d="M205.5,36.2h6.2v32.6h-6.2V36.2z"/>
	<path fill="#FFFFFF" d="M218.7,36.2h7.4c4.7,0,8.3,0.6,10.6,1.8c2.3,1.2,4.2,3.1,5.7,5.7c1.5,2.6,2.2,5.7,2.2,9.3
		c0,2.5-0.4,4.8-1.3,6.9c-0.8,2.1-2,3.9-3.5,5.2c-1.5,1.4-3.1,2.4-4.8,2.9c-1.7,0.5-4.7,0.8-8.9,0.8h-7.5V36.2z M224.9,42.2v20.6
		h2.9c2.8,0,4.9-0.3,6.2-1s2.3-1.7,3.1-3.3c0.8-1.5,1.2-3.4,1.2-5.7c0-3.5-1-6.2-2.9-8.1c-1.7-1.7-4.5-2.6-8.4-2.6H224.9z"/>
	<path fill="#FFFFFF" d="M254.3,36.2h9.3v32.6h-6.2V42h-6.7L254.3,36.2z"/>
	<path fill="#FFFFFF" d="M284.5,69.6l-5.3-2.6l5.7-11.1c-2.8,0-5.1-1-7.1-3c-1.9-2-2.9-4.4-2.9-7.4c0-2.9,1-5.3,3-7.2
		c2-2,4.4-3,7.2-3c2.9,0,5.4,1,7.3,3.1c2,2,2.9,4.4,2.9,7.1c0,1-0.2,2-0.5,3c-0.3,1-1,2.6-2.1,4.7L284.5,69.6z M285.3,50
		c1.2,0,2.1-0.4,2.9-1.3c0.8-0.8,1.2-1.9,1.2-3.1c0-1.3-0.4-2.3-1.2-3.2c-0.8-0.9-1.8-1.3-2.9-1.3c-1.2,0-2.1,0.4-3,1.3
		c-0.8,0.9-1.2,1.9-1.2,3.2c0,1.3,0.4,2.3,1.2,3.1C283,49.6,284,50,285.3,50z"/>
</g>
</svg>
