<?xml version="1.0" encoding="utf-8"?>
<!-- Generator: Adobe Illustrator 17.1.0, SVG Export Plug-In . SVG Version: 6.00 Build 0)  -->
<!DOCTYPE svg PUBLIC "-//W3C//DTD SVG 1.1//EN" "http://www.w3.org/Graphics/SVG/1.1/DTD/svg11.dtd">
<svg version="1.1" id="ic_empty_transactions" xmlns="http://www.w3.org/2000/svg" xmlns:xlink="http://www.w3.org/1999/xlink"
	 x="0px" y="0px" viewBox="0 0 100 100" enable-background="new 0 0 100 100" xml:space="preserve">
<g id="Group_9015">
	<path id="Path_18970" fill="#D6D6D6" d="M50,26c-13.3,0-24,10.7-24,24s10.7,24,24,24s24-10.7,24-24S63.3,26,50,26z M50,68
		c-9.9,0-18-8.1-18-18s8.1-18,18-18s18,8.1,18,18S59.9,68,50,68z"/>
	<g id="Group_9014">
		<g id="Group_9012" display="none">
			<g id="Group_9011" display="inline">
				<path id="Path_18971" fill="#666666" d="M60.2,45c0.2,4.1-3,7.6-7,7.8c-0.3,0-0.5,0-0.8,0h-6.3v10h-2.5V50.5H52
					c3.4,0,5.6-2.1,5.6-5.5c0-3.4-2.2-5.4-5.6-5.4h-2.6l-6.3,0v-2.3h9.2C56.9,37.3,60.2,40.2,60.2,45"/>
			</g>
		</g>
		<g id="Group_9013">
			<path id="Path_18972" fill="#666666" d="M50,31c-10.5,0-19,8.5-19,19s8.5,19,19,19s19-8.5,19-19C69,39.5,60.5,31,50,31z M50,67
				c-9.4,0-17-7.6-17-17s7.6-17,17-17s17,7.6,17,17C67,59.4,59.4,67,50,67z"/>
			<path id="Rectangle_4664" fill="#666666" d="M83,56h2v4h-2V56z"/>
			<path id="Rectangle_4665" fill="#666666" d="M83,44h2v8h-2V44z"/>
			<path id="Rectangle_4666" fill="#666666" d="M15,48h2v8h-2V48z"/>
			<path id="Rectangle_4667" fill="#666666" d="M15,40h2v4h-2V40z"/>
			<path id="Path_18973" fill="#666666" d="M95.2,71H85v-7h-2v9h7.8L76,90.5L61.2,73H68v-2h-4.5c11.6-7.5,15-22.9,7.5-34.5
				c-6.4-9.9-18.9-14-29.9-9.8L24,6.5L4.8,29H15v7h2v-9H9.2L24,9.5L38.8,27H32v2h4.5c-11.6,7.5-15,22.9-7.5,34.5
				c6.4,9.9,18.9,14,29.9,9.8L76,93.5L95.2,71z M27,50c0-12.7,10.3-23,23-23s23,10.3,23,23S62.7,73,50,73C37.3,73,27,62.7,27,50z"/>
		</g>
	</g>
</g>
<path id="Rectangle_4668" fill="none" d="M0,0h100v100H0V0z"/>
<g>
	<g>
		<path fill="#666666" d="M50.6,45.9v-3.8c-0.4,0-0.7,0.1-1.1,0.2c0.1-0.2,0.2-0.6,0.1-0.9c-0.1-0.3-0.2-0.6-0.4-0.7
			c-0.1-0.1-0.2-0.1-0.3-0.2c-0.1,0-0.3,0-0.4,0c-0.2,0.1-0.4,0.3-0.5,0.5c-0.1,0.3-0.1,0.6,0.1,0.8c0.1,0.3,0.3,0.5,0.5,0.6
			c0,0,0.1,0,0.1,0.1c-0.5,0.2-1,0.5-1.5,0.8l-1.5-2.6c0.2-1.3-0.9-1.8-1.7-1.2c-1,0.7-0.4,2,0.6,2c0,0,1.8,2,2,2.2
			c-0.4,0.3-0.8,0.7-1.2,1.1c-0.2-1-1.3-1.5-1.9-0.8c-0.6,0.7,0.4,1.7,1.3,1.6C44.5,46,44.2,46.5,44,47l-2.7-1.3c0,0,0-0.1,0-0.1
			C41,45,40.4,44.7,39.8,45c-0.5,0.2-0.9,1-0.6,1.6c0.3,0.6,1.1,0.7,1.6,0.4c0,0,2.7,0.6,2.9,0.7c-0.2,0.5-0.3,1.1-0.3,1.6
			c-0.6-0.7-2-0.5-2,0.4c-0.1,0.8,1.3,1.3,2,0.5c0,0.6,0.1,1.1,0.2,1.6c-0.2,0-2.9,0.5-2.9,0.5c-0.8-0.6-2,0.1-1.7,1.2
			c0.4,1.1,1.7,1.1,2.1,0.1l2.8-1.1c0.2,0.5,0.4,1,0.7,1.5c-0.5-0.2-1.3,0.2-1.5,0.7c-0.4,1.2,1.4,1.7,2,0c0.4,0.6,0.9,1.1,1.5,1.6
			c-0.3,0.3-1.7,1.9-2,2.2c-1.1,0.1-1.5,1.3-0.6,2c1,0.6,2-0.2,1.7-1.2c0.1-0.1,1.4-2.4,1.5-2.6c0.5,0.3,0.9,0.6,1.5,0.7
			c-0.8,0.4-1,1.7-0.2,2.1c0.9,0.2,1.5-0.9,1.1-1.8c0.3,0.1,0.7,0.2,1.1,0.2v-3.8c-1.9-0.4-3.3-2.1-3.3-4.1c0-1.2,0.5-2.3,1.3-3
			C49,46.4,49.8,46,50.6,45.9z M48.5,42.2C48.5,42.2,48.4,42.2,48.5,42.2c-0.2-0.2-0.3-0.3-0.4-0.5c-0.1-0.2-0.1-0.5,0-0.6
			c0.1-0.2,0.2-0.3,0.4-0.4c0.4-0.1,0.8,0.2,0.9,0.6C49.5,42,49.1,42.6,48.5,42.2z M45.1,41c-0.8,0.6-2-0.7-1-1.4
			C45.1,38.9,45.9,40.4,45.1,41z M40.5,46.8L40.5,46.8c-0.6,0.2-1.3-0.4-1-1.1c0.2-0.7,1-0.8,1.5-0.2h0C41.3,46,41.1,46.7,40.5,46.8
			z M42.6,50.3c-1.2,0-1.1-1.4,0-1.3c0.2,0,0.3,0.1,0.5,0.2h0C43.7,49.6,43.4,50.3,42.6,50.3z M40.7,53.7c-0.4,0.5-1.2,0.4-1.5-0.3
			c-0.2-0.7,0.4-1.3,1.1-1c0.4,0.1,0.6,0.5,0.6,0.8C40.9,53.4,40.8,53.6,40.7,53.7z M44.7,55c-0.4,1-1.8,0.6-1.5-0.2
			C43.6,53.9,45.2,54,44.7,55z M45,45.2c-0.1,0.1-0.3,0.2-0.6,0.2c0,0,0,0,0,0c-0.6,0-1.1-0.7-0.8-1.2C44.3,43.4,45.5,44.5,45,45.2z
			 M44.1,60.4c-1-0.8,0.2-2,1-1.4C46,59.6,45.1,61.1,44.1,60.4z M49,57.7c0.7,0.2,0.4,1.9-0.5,1.6C47.6,58.9,48.3,57.4,49,57.7z"/>
	</g>
	<g>
		<path fill="#666666" d="M52.3,54.1v3.8c1.9-0.2,3.5-1,4.8-2.3L54.4,53C53.8,53.5,53.1,53.9,52.3,54.1z"/>
	</g>
	<g>
		<path fill="#666666" d="M52.3,42v3.8c0.8,0.2,1.5,0.6,2.1,1.2l2.7-2.7C55.8,43.1,54.2,42.2,52.3,42z"/>
	</g>
	<g>
		<path fill="#666666" d="M43.5,49.3c-0.6-0.7-2-0.5-2,0.4c-0.1,0.8,1.3,1.3,2,0.5c0,0,0-0.1,0-0.1C43.4,49.8,43.4,49.5,43.5,49.3z
			 M42.6,50.3c-1.2,0-1.1-1.4,0-1.3c0.2,0,0.3,0.1,0.5,0.2h0C43.7,49.6,43.4,50.3,42.6,50.3z M43.6,51.8c-0.2,0-2.9,0.5-2.9,0.5
			c-0.8-0.6-2,0.1-1.7,1.2c0.4,1.1,1.7,1.1,2.1,0.1l2.8-1.1C43.8,52.3,43.7,52,43.6,51.8z M40.7,53.7c-0.4,0.5-1.2,0.4-1.5-0.3
			c-0.2-0.7,0.4-1.3,1.1-1c0.4,0.1,0.6,0.5,0.6,0.8C40.9,53.4,40.8,53.6,40.7,53.7z M44,47l-2.7-1.3c0,0,0-0.1,0-0.1
			C41,45,40.4,44.7,39.8,45c-0.5,0.2-0.9,1-0.6,1.6c0.3,0.6,1.1,0.7,1.6,0.4c0,0,2.7,0.6,2.9,0.7C43.9,47.4,44,47.1,44,47
			C44,46.9,44,47,44,47z M40.5,46.8L40.5,46.8c-0.6,0.2-1.3-0.4-1-1.1c0.2-0.7,1-0.8,1.5-0.2h0C41.3,46,41.1,46.7,40.5,46.8z
			 M44.5,54c-0.5-0.2-1.3,0.2-1.5,0.7c-0.4,1.2,1.4,1.7,2,0C44.8,54.5,44.6,54.3,44.5,54z M44.7,55c-0.4,1-1.8,0.6-1.5-0.2
			C43.6,53.9,45.2,54,44.7,55z M47.1,56.7c-0.2-0.1-0.4-0.2-0.6-0.4c-0.3,0.3-1.7,1.9-2,2.2c-1.1,0.1-1.5,1.3-0.6,2
			c1,0.6,2-0.2,1.7-1.2C45.8,59.2,47,56.9,47.1,56.7z M44.1,60.4c-1-0.8,0.2-2,1-1.4C46,59.6,45.1,61.1,44.1,60.4z M49.5,57.7
			c-0.4-0.1-0.7-0.2-1-0.3c0,0,0.1,0,0.1,0.1c-0.8,0.4-1,1.7-0.2,2.1C49.3,59.8,49.9,58.6,49.5,57.7z M48.5,59.3
			c-0.9-0.3-0.2-1.9,0.5-1.6C49.7,57.8,49.4,59.5,48.5,59.3z M49.5,42.2c0.1-0.2,0.2-0.6,0.1-0.9c-0.1-0.3-0.2-0.6-0.4-0.7
			c-0.1-0.1-0.2-0.1-0.3-0.2c-0.1,0-0.3,0-0.4,0c-0.2,0.1-0.4,0.3-0.5,0.5c-0.1,0.3-0.1,0.6,0.1,0.8c0.1,0.3,0.3,0.5,0.5,0.6
			c0,0,0.1,0,0.1,0.1c-0.4,0.2-0.9,0.4-1.2,0.6c1-0.6,2.1-0.9,3.2-1.1v0C50.2,42.1,49.8,42.2,49.5,42.2z M48.5,42.2
			C48.5,42.2,48.4,42.2,48.5,42.2c-0.2-0.2-0.3-0.3-0.4-0.5c-0.1-0.2-0.1-0.5,0-0.6c0.1-0.2,0.2-0.3,0.4-0.4
			c0.4-0.1,0.8,0.2,0.9,0.6C49.5,42,49.1,42.6,48.5,42.2z M45.6,40.7c0.2-1.3-0.9-1.8-1.7-1.2c-1,0.7-0.4,2,0.6,2c0,0,1.8,2,2,2.2
			c-0.4,0.3-0.7,0.6-1,1c0.5-0.6,1.2-1.1,1.8-1.5c-0.1,0-0.2,0.1-0.2,0.1L45.6,40.7z M45.1,41c-0.8,0.6-2-0.7-1-1.4
			C45.1,38.9,45.9,40.4,45.1,41z M43.5,44c-0.6,0.7,0.4,1.7,1.3,1.6c0,0.1-0.1,0.1-0.1,0.2c0.2-0.4,0.5-0.8,0.8-1.1
			c-0.1,0.1-0.1,0.1-0.2,0.2C45.2,43.8,44,43.3,43.5,44z M45,45.2c-0.1,0.1-0.3,0.2-0.6,0.2c0,0,0,0,0,0c-0.6,0-1.1-0.7-0.8-1.2
			C44.3,43.4,45.5,44.5,45,45.2z"/>
	</g>
	<g>
		<path fill="#666666" d="M50.6,62.7L50.6,62.7c-0.5,0-0.9-0.4-0.9-0.9V38.1c0-0.5,0.4-0.9,0.9-0.9h0c0.5,0,0.9,0.4,0.9,0.9v23.7
			C51.4,62.3,51,62.7,50.6,62.7z"/>
	</g>
</g>
</svg>
