<?xml version="1.0" encoding="utf-8"?>
<!-- Generator: Adobe Illustrator 17.1.0, SVG Export Plug-In . SVG Version: 6.00 Build 0)  -->
<!DOCTYPE svg PUBLIC "-//W3C//DTD SVG 1.1//EN" "http://www.w3.org/Graphics/SVG/1.1/DTD/svg11.dtd">
<svg version="1.1" id="ic_staking_on" xmlns="http://www.w3.org/2000/svg" xmlns:xlink="http://www.w3.org/1999/xlink" x="0px"
	 y="0px" viewBox="0 0 100 100" enable-background="new 0 0 100 100" xml:space="preserve">
<g id="Group_9018">
	<g id="Group_9016">
		<ellipse id="Ellipse_613" fill="#D6D6D6" cx="80" cy="56" rx="12" ry="4"/>
		<ellipse id="Ellipse_614" fill="#D6D6D6" cx="64" cy="68" rx="12" ry="4"/>
		<path id="Rectangle_4669" fill="#D6D6D6" d="M32,24h14v14H32V24z"/>
	</g>
	<g id="Group_9017">
		<path id="Rectangle_4670" fill="#666666" d="M12,60h2v4h-2V60z"/>
		<path id="Rectangle_4671" display="none" fill="#666666" d="M28.7,50.4h10.6v2.2H28.7V50.4z"/>
		<path id="Path_18974" display="none" fill="#666666" d="M40.3,57.5H31V71h2.7V60h6.9c5,0,8.6-3.4,8.6-8.6c0-5.2-3.6-8.5-8.6-8.5
			H30.5v2.5l6.9,0h2.9c3.7,0,6.1,2.2,6.1,6C46.5,55.3,44,57.5,40.3,57.5z"/>
		<path id="Path_18975" fill="#666666" d="M92,58c0.6-0.5,0.9-1.2,1-2c0-3.3-6.5-5-13-5s-13,1.7-13,5c0,0.8,0.4,1.5,1,2
			c-1.1,0.9-1.3,2.5-0.4,3.6c0.1,0.1,0.2,0.3,0.4,0.4c-0.3,0.3-0.6,0.7-0.8,1.2c-0.4,0-0.8-0.1-1.2-0.1V39h5V23H52.6
			c3.9-3.1,4.5-8.8,1.4-12.6S45.2,5.9,41.4,9c-1,0.8-1.8,1.8-2.4,2.9C36.7,7.5,31.3,5.7,26.9,8s-6.2,7.7-3.9,12.1
			c0.6,1.1,1.4,2.1,2.4,2.9H7v16h5v17h2V39h50v24c-6.5,0-13,1.7-13,5c0,0.8,0.4,1.5,1,2c-1.1,0.9-1.3,2.5-0.4,3.6
			c0.1,0.1,0.2,0.3,0.4,0.4c-0.3,0.3-0.6,0.6-0.7,1H14v-7h-2v9h39.2c0.2,0.4,0.4,0.7,0.7,1c-1.1,0.9-1.3,2.5-0.4,3.6
			c0.1,0.1,0.2,0.3,0.4,0.4c-1.1,0.9-1.3,2.5-0.4,3.6c0.1,0.1,0.2,0.3,0.4,0.4c-0.6,0.5-0.9,1.2-1,2c0,3.3,6.5,5,13,5
			c5.9,0,11.8-1.4,12.8-4.2c1,0.1,2.1,0.2,3.2,0.2c6.5,0,13-1.7,13-5c0-0.8-0.4-1.5-1-2c1.1-0.9,1.3-2.5,0.4-3.6
			c-0.1-0.1-0.2-0.3-0.4-0.4c1.1-0.9,1.3-2.5,0.4-3.6c-0.1-0.1-0.2-0.3-0.4-0.4c1.1-0.9,1.3-2.5,0.4-3.6c-0.1-0.1-0.2-0.3-0.4-0.4
			c1.1-0.9,1.3-2.5,0.4-3.6c-0.1-0.1-0.2-0.3-0.4-0.4c1.1-0.9,1.3-2.5,0.4-3.6c-0.1-0.1-0.2-0.3-0.4-0.4c1.1-0.9,1.3-2.5,0.4-3.6
			C92.3,58.2,92.2,58.1,92,58z M31,37H9V25h22V37z M24,16c0-3.9,3.1-7,7-7s7,3.1,7,7v7h-7C27.1,23,24,19.9,24,16z M45,37H33V25h12
			V37z M40,23v-7c0-3.9,3.1-7,7-7s7,3.1,7,7s-3.1,7-7,7H40z M47,37V25h22v12H47z M51,76c0,0.2,0,0.3,0.1,0.5C51,76.3,51,76.2,51,76z
			 M64,91c-7.1,0-11-2-11-3c0-0.2,0.2-0.5,0.7-0.8C56.2,88.4,60.1,89,64,89s7.8-0.6,10.3-1.8c0.4,0.3,0.7,0.6,0.7,0.8
			C75,89,71.1,91,64,91z M64,87c-7.1,0-11-2-11-3c0-0.2,0.2-0.5,0.7-0.8C56.2,84.4,60.1,85,64,85s7.8-0.6,10.3-1.8
			c0.4,0.3,0.7,0.6,0.7,0.8C75,85,71.1,87,64,87z M64,83c-7.1,0-11-2-11-3c0-0.2,0.2-0.5,0.7-0.8C56.2,80.4,60.1,81,64,81
			s7.8-0.6,10.3-1.8c0.4,0.3,0.7,0.6,0.7,0.8C75,81,71.1,83,64,83z M64,79c-7.1,0-11-2-11-3c0-0.2,0.2-0.5,0.7-0.8
			C56.2,76.4,60.1,77,64,77s7.8-0.6,10.3-1.8c0.4,0.3,0.7,0.6,0.7,0.8C75,77,71.1,79,64,79z M64,75c-7.1,0-11-2-11-3
			c0-0.2,0.2-0.5,0.7-0.8C56.2,72.4,60.1,73,64,73s7.8-0.6,10.3-1.8c0.4,0.3,0.7,0.6,0.7,0.8C75,73,71.1,75,64,75z M64,71
			c-7.1,0-11-2-11-3s3.9-3,11-3s11,2,11,3S71.1,71,64,71z M80,87c-1.2,0-2.3-0.1-3.3-0.2c-0.2-0.3-0.4-0.6-0.6-0.8
			c0.3-0.3,0.6-0.7,0.8-1.2c1,0.1,2.1,0.2,3.2,0.2c3.9,0,7.8-0.6,10.3-1.8c0.4,0.3,0.7,0.6,0.7,0.8C91,85,87.1,87,80,87z M80,83
			c-1.2,0-2.3-0.1-3.3-0.2c-0.2-0.3-0.4-0.6-0.6-0.8c0.3-0.3,0.6-0.7,0.8-1.2c1,0.1,2.1,0.2,3.2,0.2c3.9,0,7.8-0.6,10.3-1.8
			c0.4,0.3,0.7,0.6,0.7,0.8C91,81,87.1,83,80,83z M80,79c-1.2,0-2.3-0.1-3.3-0.2c-0.2-0.3-0.4-0.6-0.6-0.8c0.3-0.3,0.6-0.7,0.8-1.2
			c1,0.1,2.1,0.2,3.2,0.2c3.9,0,7.8-0.6,10.3-1.8c0.4,0.3,0.7,0.6,0.7,0.8C91,77,87.1,79,80,79z M80,75c-1.2,0-2.3-0.1-3.3-0.2
			c-0.2-0.3-0.4-0.6-0.6-0.8c0.3-0.3,0.6-0.7,0.8-1.2c1,0.1,2.1,0.2,3.2,0.2c3.9,0,7.8-0.6,10.3-1.8c0.4,0.3,0.7,0.6,0.7,0.8
			C91,73,87.1,75,80,75z M80,71c-1.2,0-2.3-0.1-3.3-0.2c-0.2-0.3-0.4-0.6-0.6-0.8c0.3-0.3,0.6-0.7,0.8-1.2c1,0.1,2.1,0.2,3.2,0.2
			c3.9,0,7.8-0.6,10.3-1.8c0.4,0.3,0.7,0.6,0.7,0.8C91,69,87.1,71,80,71z M80,67c-1.2,0-2.3-0.1-3.3-0.2c-0.6-1.2-2.2-2.1-4.2-2.7
			c2.5,0.6,5,0.9,7.5,0.9c3.9,0,7.8-0.6,10.3-1.8c0.4,0.3,0.7,0.6,0.7,0.8C91,65,87.1,67,80,67z M69.4,63.4c0.1-0.1,0.2-0.2,0.3-0.3
			c0.6,0.3,1.2,0.5,1.8,0.7C70.8,63.7,70.1,63.5,69.4,63.4z M80,63c-7.1,0-11-2-11-3c0-0.2,0.2-0.5,0.7-0.8C72.2,60.4,76.1,61,80,61
			s7.8-0.6,10.3-1.8c0.4,0.3,0.7,0.6,0.7,0.8C91,61,87.1,63,80,63z M80,59c-7.1,0-11-2-11-3s3.9-3,11-3s11,2,11,3S87.1,59,80,59z"/>
	</g>
</g>
<path id="Rectangle_4672" fill="none" d="M0,0h100v100H0V0z"/>
<g>
	<g>
		<path fill="#666666" d="M36.4,52.5v-4.2c-0.4,0-0.8,0.1-1.2,0.2c0.1-0.2,0.2-0.6,0.1-1c-0.1-0.3-0.2-0.6-0.5-0.8
			c-0.1-0.1-0.2-0.2-0.4-0.2c-0.1,0-0.3,0-0.4,0c-0.3,0.1-0.5,0.3-0.6,0.6c-0.1,0.3-0.1,0.6,0.1,0.9c0.1,0.3,0.4,0.5,0.6,0.7
			c0,0,0.1,0,0.1,0.1c-0.6,0.2-1.1,0.5-1.6,0.8L31,46.7c0.3-1.4-0.9-2-1.9-1.3c-1.1,0.7-0.5,2.2,0.7,2.2c0,0,1.9,2.2,2.2,2.5
			c-0.5,0.4-0.9,0.8-1.3,1.2c-0.2-1.1-1.5-1.7-2.1-0.9C28,51.1,29,52.3,30,52.1c-0.3,0.5-0.6,1-0.9,1.6l-3-1.4c0,0,0-0.1,0-0.1
			c-0.3-0.7-1-0.9-1.6-0.7c-0.6,0.2-1,1.1-0.6,1.8c0.4,0.7,1.2,0.8,1.7,0.4c0,0,3,0.7,3.2,0.8c-0.2,0.6-0.3,1.2-0.3,1.8
			c-0.7-0.8-2.2-0.6-2.2,0.4c-0.1,0.9,1.4,1.4,2.2,0.6c0,0.6,0.1,1.2,0.2,1.8c-0.2,0-3.2,0.5-3.2,0.5c-0.9-0.7-2.2,0.1-1.9,1.3
			c0.4,1.2,1.9,1.2,2.3,0.1l3-1.2c0.2,0.6,0.4,1.1,0.7,1.7c-0.5-0.2-1.4,0.2-1.6,0.8c-0.5,1.3,1.6,1.9,2.2,0c0.5,0.7,1,1.2,1.7,1.7
			c-0.3,0.4-1.9,2.1-2.2,2.5c-1.2,0.1-1.7,1.4-0.7,2.2c1.1,0.7,2.2-0.3,1.9-1.4c0.1-0.2,1.5-2.7,1.6-2.9c0.5,0.3,1,0.6,1.6,0.8
			c-0.9,0.4-1.1,1.9-0.2,2.3c1,0.3,1.6-1,1.2-1.9c0.4,0.1,0.8,0.2,1.2,0.2v-4.2c-2.1-0.4-3.6-2.3-3.7-4.5c0-1.3,0.5-2.5,1.4-3.3
			C34.7,53.1,35.5,52.6,36.4,52.5z M34.1,48.5C34.1,48.5,34.1,48.4,34.1,48.5c-0.2-0.2-0.3-0.3-0.4-0.5c-0.1-0.2-0.1-0.5,0-0.7
			s0.2-0.4,0.4-0.4c0.4-0.1,0.9,0.2,1,0.7C35.2,48.2,34.8,48.9,34.1,48.5z M30.4,47.1c-0.9,0.7-2.2-0.7-1.1-1.5
			C30.4,44.8,31.3,46.5,30.4,47.1z M25.3,53.5L25.3,53.5c-0.7,0.2-1.4-0.5-1.1-1.2c0.3-0.7,1.2-0.9,1.6-0.2h0
			C26.2,52.6,25.9,53.4,25.3,53.5z M27.6,57.4c-1.3,0-1.2-1.6,0-1.4c0.2,0,0.4,0.1,0.5,0.2h0C28.8,56.5,28.5,57.3,27.6,57.4z
			 M25.5,61.1c-0.5,0.6-1.4,0.4-1.6-0.3c-0.2-0.8,0.5-1.4,1.2-1.1c0.4,0.1,0.6,0.5,0.6,0.9C25.7,60.7,25.7,60.9,25.5,61.1z
			 M29.9,62.5c-0.5,1.1-1.9,0.7-1.6-0.2C28.7,61.3,30.5,61.4,29.9,62.5z M30.3,51.7c-0.1,0.2-0.4,0.2-0.6,0.2c0,0,0,0,0,0
			c-0.7,0-1.3-0.8-0.8-1.3C29.4,49.7,30.8,51,30.3,51.7z M29.3,68.4c-1.1-0.8,0.2-2.2,1.1-1.5C31.3,67.5,30.4,69.1,29.3,68.4z
			 M34.7,65.4c0.8,0.2,0.5,2.1-0.6,1.8C33.1,66.8,33.9,65.1,34.7,65.4z"/>
	</g>
	<g>
		<path fill="#666666" d="M38.3,61.5v4.2c2-0.2,3.9-1.2,5.3-2.5l-2.9-2.9C40,60.9,39.2,61.3,38.3,61.5z"/>
	</g>
	<g>
		<path fill="#666666" d="M38.3,48.2v4.2c0.9,0.2,1.7,0.6,2.3,1.3l2.9-2.9C42.2,49.4,40.3,48.5,38.3,48.2z"/>
	</g>
	<g>
		<path fill="#666666" d="M28.6,56.2c-0.7-0.8-2.2-0.6-2.2,0.4c-0.1,0.9,1.4,1.4,2.2,0.6c0,0,0-0.1,0-0.2
			C28.5,56.7,28.6,56.5,28.6,56.2z M27.6,57.4c-1.3,0-1.2-1.6,0-1.4c0.2,0,0.4,0.1,0.5,0.2h0C28.8,56.5,28.5,57.3,27.6,57.4z
			 M28.8,59c-0.2,0-3.2,0.5-3.2,0.5c-0.9-0.7-2.2,0.1-1.9,1.3c0.4,1.2,1.9,1.2,2.3,0.1l3-1.2C28.9,59.5,28.8,59.2,28.8,59z
			 M25.5,61.1c-0.5,0.6-1.4,0.4-1.6-0.3c-0.2-0.8,0.5-1.4,1.2-1.1c0.4,0.1,0.6,0.5,0.6,0.9C25.7,60.7,25.7,60.9,25.5,61.1z
			 M29.2,53.7l-3-1.4c0,0,0-0.1,0-0.1c-0.3-0.7-1-0.9-1.6-0.7c-0.6,0.2-1,1.1-0.6,1.8c0.4,0.7,1.2,0.8,1.7,0.4c0,0,3,0.7,3.2,0.8
			C29,54.1,29.1,53.9,29.2,53.7C29.2,53.6,29.2,53.7,29.2,53.7z M25.3,53.5L25.3,53.5c-0.7,0.2-1.4-0.5-1.1-1.2
			c0.3-0.7,1.2-0.9,1.6-0.2h0C26.2,52.6,25.9,53.4,25.3,53.5z M29.7,61.4c-0.5-0.2-1.4,0.2-1.6,0.8c-0.5,1.3,1.6,1.9,2.2,0
			C30.1,62,29.9,61.7,29.7,61.4z M29.9,62.5c-0.5,1.1-1.9,0.7-1.6-0.2C28.7,61.3,30.5,61.4,29.9,62.5z M32.6,64.4
			c-0.2-0.1-0.4-0.3-0.6-0.4c-0.3,0.4-1.9,2.1-2.2,2.5c-1.2,0.1-1.7,1.4-0.7,2.2c1.1,0.7,2.2-0.3,1.9-1.4
			C31.1,67.1,32.5,64.6,32.6,64.4z M29.3,68.4c-1.1-0.8,0.2-2.2,1.1-1.5C31.3,67.5,30.4,69.1,29.3,68.4z M35.2,65.5
			c-0.4-0.1-0.8-0.2-1.1-0.4c0,0,0.1,0,0.2,0.1c-0.9,0.4-1.1,1.9-0.2,2.3C35,67.7,35.6,66.4,35.2,65.5z M34.1,67.2
			c-1-0.4-0.2-2.1,0.6-1.8C35.4,65.6,35.1,67.5,34.1,67.2z M35.2,48.5c0.1-0.2,0.2-0.6,0.1-1c-0.1-0.3-0.2-0.6-0.5-0.8
			c-0.1-0.1-0.2-0.2-0.4-0.2c-0.1,0-0.3,0-0.4,0c-0.3,0.1-0.5,0.3-0.6,0.6c-0.1,0.3-0.1,0.6,0.1,0.9c0.1,0.3,0.4,0.5,0.6,0.7
			c0,0,0.1,0,0.1,0.1c-0.5,0.2-0.9,0.4-1.4,0.7c1.1-0.6,2.3-1,3.5-1.2v0C36,48.3,35.6,48.4,35.2,48.5z M34.1,48.5
			C34.1,48.5,34.1,48.4,34.1,48.5c-0.2-0.2-0.3-0.3-0.4-0.5c-0.1-0.2-0.1-0.5,0-0.7s0.2-0.4,0.4-0.4c0.4-0.1,0.9,0.2,1,0.7
			C35.2,48.2,34.8,48.9,34.1,48.5z M31,46.7c0.3-1.4-0.9-2-1.9-1.3c-1.1,0.7-0.5,2.2,0.7,2.2c0,0,1.9,2.2,2.2,2.5
			c-0.4,0.3-0.8,0.7-1.1,1.1c0.6-0.6,1.3-1.2,2-1.6c-0.1,0-0.2,0.1-0.2,0.1L31,46.7z M30.4,47.1c-0.9,0.7-2.2-0.7-1.1-1.5
			C30.4,44.8,31.3,46.5,30.4,47.1z M28.6,50.4C28,51.1,29,52.3,30,52.1c0,0.1-0.1,0.1-0.1,0.2c0.3-0.4,0.6-0.8,0.9-1.2
			c-0.1,0.1-0.1,0.1-0.2,0.2C30.5,50.2,29.2,49.6,28.6,50.4z M30.3,51.7c-0.1,0.2-0.4,0.2-0.6,0.2c0,0,0,0,0,0
			c-0.7,0-1.3-0.8-0.8-1.3C29.4,49.7,30.8,51,30.3,51.7z"/>
	</g>
	<g>
		<path fill="#666666" d="M36.4,71L36.4,71c-0.5,0-1-0.4-1-1V44c0-0.5,0.4-1,1-1h0c0.5,0,1,0.4,1,1V70C37.3,70.6,36.9,71,36.4,71z"
			/>
	</g>
</g>
</svg>
