<?xml version="1.0" encoding="utf-8"?>
<!-- Generator: Adobe Illustrator 17.1.0, SVG Export Plug-In . SVG Version: 6.00 Build 0)  -->
<!DOCTYPE svg PUBLIC "-//W3C//DTD SVG 1.1//EN" "http://www.w3.org/Graphics/SVG/1.1/DTD/svg11.dtd">
<svg version="1.1" id="ic_empty_dark_multisend" xmlns="http://www.w3.org/2000/svg" xmlns:xlink="http://www.w3.org/1999/xlink"
	 x="0px" y="0px" viewBox="0 0 100 100" enable-background="new 0 0 100 100" xml:space="preserve">
<g id="Group_9062">
	<g id="Group_9060">
		<path id="Rectangle_4717" fill="#413D4A" d="M45,18h10v9H45V18z"/>
		<g id="Group_9059">
			<path id="Rectangle_4718" fill="#413D4A" d="M14,66h6v10h-6V66z"/>
			<path id="Rectangle_4719" fill="#413D4A" d="M80,66h6v10h-6V66z"/>
			<path id="Rectangle_4720" fill="#413D4A" d="M47,66h6v10h-6V66z"/>
		</g>
	</g>
	<g id="Group_9061">
		<path id="Rectangle_4721" display="none" fill="#A09EA5" d="M43.4,35.8h6.8v1.4h-6.8V35.8z"/>
		<path id="Path_19006" display="none" fill="#A09EA5" d="M46.6,41.9h4.5c2.9,0.2,5.4-2.1,5.5-5c0-0.2,0-0.4,0-0.6
			c0.1-2.9-2.1-5.3-4.9-5.4c-0.2,0-0.4,0-0.6,0h-6.5v1.6l4.5,0h1.9c2-0.2,3.7,1.3,3.9,3.3c0,0.2,0,0.4,0,0.6c0.1,2-1.4,3.8-3.4,3.9
			c-0.2,0-0.4,0-0.6,0h-6V49h1.8V41.9z"/>
		<path id="Rectangle_4722" fill="#A09EA5" d="M67,40h2v4h-2V40z"/>
		<circle id="Ellipse_643" fill="#A09EA5" cx="50" cy="73" r="1"/>
		<circle id="Ellipse_644" fill="#A09EA5" cx="83" cy="73" r="1"/>
		<path id="Rectangle_4723" fill="#A09EA5" d="M32,58h4v2h-4V58z"/>
		<path id="Path_19007" fill="#A09EA5" d="M16,65h-3v3H7v4h2v-2h4v7h8v-7h4v21H9V76H7v17h20V68h-6v-3h-3v-5h10v-2H16V65z M19,67v8
			h-4v-8H19z"/>
		<circle id="Ellipse_645" fill="#A09EA5" cx="17" cy="73" r="1"/>
		<path id="Path_19008" fill="#A09EA5" d="M87,68v-3h-3v-7H51v-5h18v-5h-2v3H33V28h34v8h2v-8h4V17H59.5c2.2-2.5,2-6.3-0.5-8.5
			s-6.3-2-8.5,0.5c-0.2,0.2-0.4,0.5-0.5,0.7c-1.8-2.8-5.5-3.5-8.3-1.7c-2.8,1.8-3.5,5.5-1.7,8.3c0.2,0.3,0.4,0.5,0.6,0.7H27v11h4v25
			h18v5h-9v2h9v5h-3v3h-6v16h2V70h4v7h8v-7h4v21H42v-3h-2v5h20V68h-6v-3h-3v-5h31v5h-3v3h-6v12h2V70h4v7h8v-7h4v21H75v-7h-2v9h20V68
			H87z M71,19v7H56v-7H71z M51,13c0-2.2,1.8-4,4-4s4,1.8,4,4s-1.8,4-4,4h-4V13z M51,19h3v7h-8v-7H51z M45,9c2.2,0,4,1.8,4,4v4h-4
			c-2.2,0-4-1.8-4-4S42.8,9,45,9z M29,26v-7h15v7H29z M52,67v8h-4v-8H52z M85,75h-4v-8h4V75z"/>
	</g>
</g>
<path id="Rectangle_4724" fill="none" d="M0,0h100v100H0V0z"/>
<g>
	<g>
		<path fill="#A09EA5" d="M51.1,37.1v-2.7c-0.3,0-0.5,0.1-0.8,0.1c0.1-0.1,0.1-0.4,0.1-0.6c0-0.2-0.2-0.4-0.3-0.5
			c-0.1-0.1-0.2-0.1-0.2-0.1c-0.1,0-0.2,0-0.3,0c-0.2,0.1-0.3,0.2-0.4,0.4c-0.1,0.2,0,0.4,0,0.6c0.1,0.2,0.2,0.3,0.4,0.4
			c0,0,0,0,0.1,0c-0.4,0.1-0.7,0.3-1,0.5l-1-1.8c0.2-0.9-0.6-1.3-1.2-0.9c-0.7,0.5-0.3,1.4,0.4,1.4c0,0,1.2,1.4,1.4,1.6
			c-0.3,0.2-0.6,0.5-0.8,0.8c-0.1-0.7-0.9-1.1-1.3-0.6c-0.4,0.5,0.3,1.2,0.9,1.1c-0.2,0.3-0.4,0.7-0.5,1L44.7,37c0,0,0,0,0-0.1
			c-0.2-0.4-0.6-0.6-1-0.4c-0.4,0.2-0.6,0.7-0.4,1.1c0.2,0.4,0.8,0.5,1.1,0.3c0,0,1.9,0.5,2,0.5c-0.1,0.4-0.2,0.7-0.2,1.1
			c-0.5-0.5-1.4-0.4-1.4,0.3c0,0.6,0.9,0.9,1.4,0.4c0,0.4,0.1,0.8,0.1,1.1c-0.1,0-2.1,0.3-2.1,0.3c-0.6-0.4-1.4,0-1.2,0.8
			c0.2,0.8,1.2,0.8,1.5,0.1l1.9-0.8c0.1,0.4,0.3,0.7,0.5,1.1c-0.3-0.1-0.9,0.1-1,0.5c-0.3,0.8,1,1.2,1.4,0c0.3,0.4,0.7,0.8,1.1,1.1
			c-0.2,0.2-1.2,1.3-1.4,1.6c-0.7,0-1.1,0.9-0.4,1.4c0.7,0.5,1.4-0.2,1.2-0.9c0.1-0.1,1-1.7,1-1.8c0.3,0.2,0.7,0.4,1,0.5
			c-0.6,0.3-0.7,1.2-0.1,1.4c0.6,0.2,1-0.6,0.7-1.2c0.2,0.1,0.5,0.1,0.8,0.1v-2.7c-1.3-0.3-2.3-1.4-2.3-2.9c0-0.9,0.3-1.6,0.9-2.1
			C50.1,37.5,50.6,37.2,51.1,37.1z M49.7,34.6C49.7,34.6,49.7,34.5,49.7,34.6c-0.2-0.1-0.2-0.2-0.3-0.3c-0.1-0.2-0.1-0.3,0-0.4
			s0.1-0.2,0.3-0.3c0.3-0.1,0.5,0.1,0.6,0.4C50.4,34.4,50.1,34.8,49.7,34.6z M47.3,33.7c-0.6,0.4-1.4-0.5-0.7-1
			C47.4,32.2,47.9,33.3,47.3,33.7z M44.1,37.8L44.1,37.8c-0.5,0.2-0.9-0.3-0.7-0.8c0.2-0.5,0.7-0.6,1-0.2h0
			C44.7,37.2,44.5,37.7,44.1,37.8z M45.6,40.2c-0.8,0-0.8-1,0-0.9c0.1,0,0.2,0.1,0.3,0.1h0C46.3,39.7,46.1,40.2,45.6,40.2z
			 M44.2,42.6c-0.3,0.4-0.9,0.3-1-0.2c-0.1-0.5,0.3-0.9,0.8-0.7c0.3,0.1,0.4,0.3,0.4,0.6C44.4,42.3,44.3,42.5,44.2,42.6z M47.1,43.5
			c-0.3,0.7-1.2,0.4-1-0.1C46.3,42.7,47.4,42.8,47.1,43.5z M47.3,36.6c-0.1,0.1-0.2,0.1-0.4,0.1c0,0,0,0,0,0c-0.4,0-0.8-0.5-0.5-0.8
			C46.7,35.4,47.6,36.2,47.3,36.6z M46.6,47.2c-0.7-0.5,0.1-1.4,0.7-1C47.9,46.7,47.3,47.7,46.6,47.2z M50.1,45.3
			c0.5,0.1,0.3,1.3-0.4,1.1C49.1,46.2,49.6,45.2,50.1,45.3z"/>
	</g>
	<g>
		<path fill="#A09EA5" d="M52.4,42.9v2.7c1.3-0.1,2.5-0.7,3.3-1.6l-1.9-1.9C53.4,42.5,52.9,42.7,52.4,42.9z"/>
	</g>
	<g>
		<path fill="#A09EA5" d="M52.4,34.4v2.7c0.6,0.1,1.1,0.4,1.5,0.8l1.9-1.9C54.8,35.1,53.7,34.6,52.4,34.4z"/>
	</g>
	<g>
		<path fill="#A09EA5" d="M46.2,39.5c-0.5-0.5-1.4-0.4-1.4,0.3c0,0.6,0.9,0.9,1.4,0.4c0,0,0-0.1,0-0.1
			C46.2,39.8,46.2,39.6,46.2,39.5z M45.6,40.2c-0.8,0-0.8-1,0-0.9c0.1,0,0.2,0.1,0.3,0.1h0C46.3,39.7,46.1,40.2,45.6,40.2z
			 M46.3,41.3c-0.1,0-2.1,0.3-2.1,0.3c-0.6-0.4-1.4,0-1.2,0.8c0.2,0.8,1.2,0.8,1.5,0.1l1.9-0.8C46.4,41.6,46.3,41.4,46.3,41.3z
			 M44.2,42.6c-0.3,0.4-0.9,0.3-1-0.2c-0.1-0.5,0.3-0.9,0.8-0.7c0.3,0.1,0.4,0.3,0.4,0.6C44.4,42.3,44.3,42.5,44.2,42.6z M46.6,37.9
			L44.7,37c0,0,0,0,0-0.1c-0.2-0.4-0.6-0.6-1-0.4c-0.4,0.2-0.6,0.7-0.4,1.1c0.2,0.4,0.8,0.5,1.1,0.3c0,0,1.9,0.5,2,0.5
			C46.5,38.2,46.5,38,46.6,37.9C46.6,37.8,46.6,37.9,46.6,37.9z M44.1,37.8L44.1,37.8c-0.5,0.2-0.9-0.3-0.7-0.8
			c0.2-0.5,0.7-0.6,1-0.2h0C44.7,37.2,44.5,37.7,44.1,37.8z M46.9,42.8c-0.3-0.1-0.9,0.1-1,0.5c-0.3,0.8,1,1.2,1.4,0
			C47.1,43.2,47,43,46.9,42.8z M47.1,43.5c-0.3,0.7-1.2,0.4-1-0.1C46.3,42.7,47.4,42.8,47.1,43.5z M48.7,44.7
			c-0.1-0.1-0.3-0.2-0.4-0.3c-0.2,0.2-1.2,1.3-1.4,1.6c-0.7,0-1.1,0.9-0.4,1.4c0.7,0.5,1.4-0.2,1.2-0.9
			C47.8,46.4,48.7,44.8,48.7,44.7z M46.6,47.2c-0.7-0.5,0.1-1.4,0.7-1C47.9,46.7,47.3,47.7,46.6,47.2z M50.4,45.4
			c-0.2-0.1-0.5-0.1-0.7-0.2c0,0,0.1,0,0.1,0c-0.6,0.3-0.7,1.2-0.1,1.4C50.3,46.8,50.7,46,50.4,45.4z M49.7,46.5
			c-0.6-0.2-0.1-1.3,0.4-1.1C50.6,45.5,50.4,46.6,49.7,46.5z M50.4,34.6c0.1-0.1,0.1-0.4,0.1-0.6c0-0.2-0.2-0.4-0.3-0.5
			c-0.1-0.1-0.2-0.1-0.2-0.1c-0.1,0-0.2,0-0.3,0c-0.2,0.1-0.3,0.2-0.4,0.4c-0.1,0.2,0,0.4,0,0.6c0.1,0.2,0.2,0.3,0.4,0.4
			c0,0,0,0,0.1,0c-0.3,0.1-0.6,0.3-0.9,0.4c0.7-0.4,1.4-0.7,2.3-0.8v0C50.9,34.5,50.6,34.5,50.4,34.6z M49.7,34.6
			C49.7,34.6,49.7,34.5,49.7,34.6c-0.2-0.1-0.2-0.2-0.3-0.3c-0.1-0.2-0.1-0.3,0-0.4s0.1-0.2,0.3-0.3c0.3-0.1,0.5,0.1,0.6,0.4
			C50.4,34.4,50.1,34.8,49.7,34.6z M47.7,33.4c0.2-0.9-0.6-1.3-1.2-0.9c-0.7,0.5-0.3,1.4,0.4,1.4c0,0,1.2,1.4,1.4,1.6
			c-0.3,0.2-0.5,0.4-0.7,0.7c0.4-0.4,0.8-0.8,1.3-1c-0.1,0-0.1,0.1-0.2,0.1L47.7,33.4z M47.3,33.7c-0.6,0.4-1.4-0.5-0.7-1
			C47.4,32.2,47.9,33.3,47.3,33.7z M46.2,35.8c-0.4,0.5,0.3,1.2,0.9,1.1c0,0-0.1,0.1-0.1,0.1c0.2-0.3,0.4-0.5,0.6-0.8
			c0,0-0.1,0.1-0.1,0.1C47.4,35.7,46.6,35.3,46.2,35.8z M47.3,36.6c-0.1,0.1-0.2,0.1-0.4,0.1c0,0,0,0,0,0c-0.4,0-0.8-0.5-0.5-0.8
			C46.7,35.4,47.6,36.2,47.3,36.6z"/>
	</g>
	<g>
		<path fill="#A09EA5" d="M51.1,48.9L51.1,48.9c-0.3,0-0.6-0.3-0.6-0.6V31.7c0-0.3,0.3-0.6,0.6-0.6h0c0.3,0,0.6,0.3,0.6,0.6v16.6
			C51.8,48.6,51.5,48.9,51.1,48.9z"/>
	</g>
</g>
</svg>
