<?xml version="1.0" encoding="utf-8"?>
<!-- Generator: Adobe Illustrator 17.1.0, SVG Export Plug-In . SVG Version: 6.00 Build 0)  -->
<!DOCTYPE svg PUBLIC "-//W3C//DTD SVG 1.1//EN" "http://www.w3.org/Graphics/SVG/1.1/DTD/svg11.dtd">
<svg version="1.1" id="Layer_1" xmlns="http://www.w3.org/2000/svg" xmlns:xlink="http://www.w3.org/1999/xlink" x="0px" y="0px"
	 viewBox="0 0 0 0" enable-background="new 0 0 0 0" xml:space="preserve">
<title>Artboard</title>
<desc>Created with Sketch.</desc>
<g>
	<g>
		<path fill="#082359" d="M43.9,35.8V23c-1.3,0.1-2.5,0.3-3.7,0.6c0.4-0.7,0.6-1.9,0.3-3.1c-0.2-1-0.7-1.8-1.4-2.3
			c-0.4-0.3-0.8-0.5-1.2-0.6c-0.4-0.1-0.9,0-1.3,0.1c-0.8,0.3-1.5,0.9-1.7,1.7c-0.3,0.9-0.2,1.8,0.2,2.8c0.4,0.9,1.1,1.7,1.7,2.1
			c0.1,0.1,0.2,0.1,0.4,0.2c-1.7,0.7-3.4,1.5-4.9,2.5l-4.9-8.8c0.8-4.2-2.9-6-5.6-4.1c-3.3,2.2-1.4,6.7,2,6.7c0,0,5.9,6.6,6.6,7.5
			c-1.4,1.1-2.8,2.4-4,3.8c-0.5-3.3-4.4-5.1-6.2-2.8c-1.8,2.3,1.3,5.8,4.4,5.3c-1,1.5-1.9,3.1-2.6,4.8l-9-4.3c0-0.1-0.1-0.2-0.1-0.3
			c-0.9-2-3-2.9-4.8-2.1c-1.8,0.8-3,3.3-1.9,5.4c1.1,2.1,3.7,2.4,5.3,1.2c0,0,9.2,2.2,9.8,2.3c-0.5,1.7-0.9,3.5-1,5.4
			c-2.2-2.3-6.6-1.7-6.8,1.3c-0.2,2.7,4.2,4.2,6.6,1.7c0,1.9,0.3,3.7,0.7,5.5c-0.5,0.1-9.9,1.7-9.9,1.7c-2.8-2.1-6.8,0.2-5.8,3.9
			c1.2,3.7,5.7,3.6,7,0.4l9.3-3.7c0.6,1.8,1.3,3.5,2.3,5.1c-1.6-0.5-4.3,0.5-5,2.5c-1.4,3.9,4.8,5.6,6.7,0.1c1.4,2,3.2,3.8,5.1,5.2
			c-0.9,1.1-5.7,6.4-6.6,7.5c-3.5,0.2-5.1,4.4-2,6.7c3.2,2.2,6.7-0.8,5.6-4.2c0.3-0.5,4.6-8.2,4.9-8.7c1.5,1,3.2,1.8,4.9,2.5
			c-2.7,1.3-3.5,5.8-0.5,6.9c3,0.8,4.9-3.1,3.5-5.9c1.2,0.3,2.4,0.5,3.6,0.6V63.4c-6.4-1.3-11.1-6.9-11.2-13.7
			c0-4.1,1.7-7.7,4.2-10.2C38.9,37.6,41.3,36.3,43.9,35.8z M37.1,23.7c-0.1,0-0.2-0.1-0.3-0.2c-0.4-0.4-0.8-0.8-1-1.4
			c-0.3-0.7-0.3-1.5-0.1-2.1c0.2-0.6,0.7-1.1,1.3-1.3c1.3-0.4,2.6,0.6,2.9,2.1C40.4,22.9,39.1,25,37.1,23.7z M25.6,19.6
			c-2.7,2.1-6.6-2.2-3.3-4.6C25.8,12.6,28.5,17.6,25.6,19.6z M10.2,39.1L10.2,39.1c-2.2,0.7-4.2-1.4-3.4-3.7
			c0.8-2.2,3.5-2.6,4.9-0.8h0C13.1,36.3,12.2,38.6,10.2,39.1z M17.2,50.8c-3.9,0.1-3.6-4.8,0.1-4.3c0.6,0.1,1.2,0.3,1.6,0.5h0
			C21,48.3,19.9,50.6,17.2,50.8z M10.9,62.1c-1.4,1.8-4.2,1.3-4.9-1c-0.6-2.3,1.4-4.3,3.6-3.5c1.3,0.4,2,1.5,2,2.6
			C11.6,60.9,11.4,61.6,10.9,62.1z M24.4,66.3c-1.5,3.3-5.9,2.1-4.9-0.7C20.7,62.6,26,63,24.4,66.3z M25.4,33.4
			c-0.4,0.5-1.1,0.7-1.9,0.6c0,0,0,0,0,0c-2.1-0.1-3.8-2.5-2.6-4C22.8,27.5,27,31.3,25.4,33.4z M22.4,84.3c-3.3-2.5,0.6-6.7,3.3-4.6
			C28.6,81.6,25.8,86.6,22.4,84.3z M38.8,75.2c2.3,0.6,1.4,6.2-1.7,5.4C34,79.5,36.5,74.4,38.8,75.2z"/>
	</g>
	<g>
		<path fill="#A60311" d="M49.8,63.4v12.8c6.2-0.7,11.8-3.5,16-7.7l-9-9C54.9,61.4,52.5,62.8,49.8,63.4z"/>
	</g>
	<g>
		<path fill="#A60311" d="M49.8,23v12.8c2.7,0.6,5.1,2,7,3.9l9-9C61.6,26.5,56,23.6,49.8,23z"/>
	</g>
	<g>
		<path fill="#51718C" d="M20.2,47.2c-2.2-2.3-6.6-1.7-6.8,1.3c-0.2,2.7,4.2,4.2,6.6,1.7c0-0.1,0-0.3,0-0.5
			C20.1,48.9,20.1,48,20.2,47.2z M17.2,50.8c-3.9,0.1-3.6-4.8,0.1-4.3c0.6,0.1,1.2,0.3,1.6,0.5h0C21,48.3,19.9,50.6,17.2,50.8z
			 M20.8,55.7c-0.7,0.1-9.8,1.7-9.8,1.7c-2.8-2.1-6.8,0.2-5.8,3.9c1.2,3.7,5.7,3.6,7,0.4l9.3-3.7C21.2,57.2,21,56.5,20.8,55.7z
			 M10.9,62.1c-1.4,1.8-4.2,1.3-4.9-1c-0.6-2.3,1.4-4.3,3.6-3.5c1.3,0.4,2,1.5,2,2.6C11.6,60.9,11.4,61.6,10.9,62.1z M22,39.6
			l-9-4.3c0-0.1-0.1-0.2-0.1-0.3c-0.9-2-3-2.9-4.8-2.1c-1.8,0.8-3,3.3-1.9,5.4c1.1,2.1,3.7,2.4,5.3,1.2c0,0,9.2,2.2,9.8,2.3
			c0.3-0.8,0.6-1.7,0.9-2.5C22.1,39.4,22.1,39.5,22,39.6z M10.2,39.1L10.2,39.1c-2.2,0.7-4.2-1.4-3.4-3.7c0.8-2.2,3.5-2.6,4.9-0.8h0
			C13.1,36.3,12.2,38.6,10.2,39.1z M23.7,63c-1.6-0.5-4.3,0.5-5,2.5c-1.4,3.9,4.8,5.6,6.7,0.1C24.8,64.8,24.2,63.9,23.7,63z
			 M24.4,66.3c-1.5,3.3-5.9,2.1-4.9-0.7C20.7,62.6,26,63,24.4,66.3z M32.5,72.1c-0.7-0.4-1.3-0.8-1.9-1.3c-0.9,1.1-5.7,6.4-6.6,7.5
			c-3.5,0.2-5.1,4.4-2,6.7c3.2,2.2,6.7-0.8,5.6-4.2C27.9,80.4,32.1,72.7,32.5,72.1z M22.4,84.3c-3.3-2.5,0.6-6.7,3.3-4.6
			C28.6,81.6,25.8,86.6,22.4,84.3z M40.3,75.6c-1.2-0.3-2.3-0.7-3.5-1.2c0.1,0.1,0.3,0.1,0.5,0.2c-2.7,1.3-3.5,5.8-0.5,6.9
			C39.8,82.3,41.7,78.4,40.3,75.6z M37.1,80.7c-3.1-1.1-0.5-6.3,1.7-5.4C41.1,75.8,40.2,81.5,37.1,80.7z M40.3,23.7
			c0.4-0.7,0.6-1.9,0.3-3.1c-0.2-1-0.7-1.8-1.4-2.3c-0.4-0.3-0.8-0.5-1.2-0.6c-0.4-0.1-0.9,0-1.3,0.1c-0.8,0.3-1.5,0.9-1.7,1.7
			c-0.3,0.9-0.2,1.8,0.2,2.8c0.4,0.9,1.1,1.7,1.7,2.1c0.1,0.1,0.2,0.1,0.4,0.2c-1.5,0.6-2.9,1.3-4.2,2.1c3.3-1.9,6.9-3.2,10.8-3.6
			V23C42.7,23.1,41.4,23.4,40.3,23.7z M37.1,23.7c-0.1,0-0.2-0.1-0.3-0.2c-0.4-0.4-0.8-0.8-1-1.4c-0.3-0.7-0.3-1.5-0.1-2.1
			c0.2-0.6,0.7-1.1,1.3-1.3c1.3-0.4,2.6,0.6,2.9,2.1C40.4,22.9,39.1,25,37.1,23.7z M27.5,18.3c0.8-4.2-2.9-6-5.6-4.1
			c-3.3,2.2-1.4,6.7,2,6.7c0,0,5.9,6.6,6.6,7.5c-1.3,1-2.5,2.1-3.5,3.3c1.8-2,3.9-3.6,6.1-5c-0.3,0.1-0.5,0.3-0.7,0.4L27.5,18.3z
			 M25.6,19.6c-2.7,2.1-6.6-2.2-3.3-4.6C25.8,12.6,28.5,17.6,25.6,19.6z M20.2,29.4c-1.8,2.3,1.3,5.8,4.4,5.3
			c-0.1,0.2-0.3,0.4-0.4,0.7c0.8-1.3,1.8-2.5,2.8-3.6c-0.2,0.2-0.4,0.3-0.5,0.5C26,28.9,22,27.1,20.2,29.4z M25.4,33.4
			c-0.4,0.5-1.1,0.7-1.9,0.6c0,0,0,0,0,0c-2.1-0.1-3.8-2.5-2.6-4C22.8,27.5,27,31.3,25.4,33.4z"/>
	</g>
	<g>
		<path fill="#082359" d="M44,92.3L44,92.3c-1.7,0-3-1.3-3-2.9V9.9C41,8.3,42.3,7,43.9,7H44c1.6,0,2.9,1.3,2.9,2.9v79.5
			C46.9,91,45.6,92.3,44,92.3z"/>
	</g>
</g>
</svg>
