<?xml version="1.0" encoding="utf-8"?>
<!-- Generator: Adobe Illustrator 17.1.0, SVG Export Plug-In . SVG Version: 6.00 Build 0)  -->
<!DOCTYPE svg PUBLIC "-//W3C//DTD SVG 1.1//EN" "http://www.w3.org/Graphics/SVG/1.1/DTD/svg11.dtd">
<svg version="1.1" id="ic_dark_staking_on" xmlns="http://www.w3.org/2000/svg" xmlns:xlink="http://www.w3.org/1999/xlink" x="0px"
	 y="0px" viewBox="0 0 100 100" enable-background="new 0 0 100 100" xml:space="preserve">
<g id="Group_9053">
	<g id="Group_9051">
		<ellipse id="Ellipse_640" fill="#413D4A" cx="80" cy="56" rx="12" ry="4"/>
		<ellipse id="Ellipse_641" fill="#413D4A" cx="64" cy="68" rx="12" ry="4"/>
		<path id="Rectangle_4706" fill="#413D4A" d="M32,24h14v14H32V24z"/>
	</g>
	<g id="Group_9052">
		<path id="Rectangle_4707" fill="#A09EA5" d="M12,60h2v4h-2V60z"/>
		<path id="Rectangle_4708" display="none" fill="#A09EA5" d="M28.7,50.4h10.6v2.2H28.7V50.4z"/>
		<path id="Path_19000" display="none" fill="#A09EA5" d="M40.3,57.5H31V71h2.7V60h6.9c5,0,8.6-3.4,8.6-8.6c0-5.2-3.6-8.5-8.6-8.5
			H30.5v2.5l6.9,0h2.9c3.7,0,6.1,2.2,6.1,6C46.5,55.3,44,57.5,40.3,57.5z"/>
		<path id="Path_19001" fill="#A09EA5" d="M92,58c0.6-0.5,0.9-1.2,1-2c0-3.3-6.5-5-13-5s-13,1.7-13,5c0,0.8,0.4,1.5,1,2
			c-1.1,0.9-1.3,2.5-0.4,3.6c0.1,0.1,0.2,0.3,0.4,0.4c-0.3,0.3-0.6,0.7-0.8,1.2c-0.4,0-0.8-0.1-1.2-0.1V39h5V23H52.6
			c3.9-3.1,4.5-8.8,1.4-12.6S45.2,5.9,41.4,9c-1,0.8-1.8,1.8-2.4,2.9C36.7,7.5,31.3,5.7,26.9,8s-6.2,7.7-3.9,12.1
			c0.6,1.1,1.4,2.1,2.4,2.9H7v16h5v17h2V39h50v24c-6.5,0-13,1.7-13,5c0,0.8,0.4,1.5,1,2c-1.1,0.9-1.3,2.5-0.4,3.6
			c0.1,0.1,0.2,0.3,0.4,0.4c-0.3,0.3-0.6,0.6-0.7,1H14v-7h-2v9h39.2c0.2,0.4,0.4,0.7,0.7,1c-1.1,0.9-1.3,2.5-0.4,3.6
			c0.1,0.1,0.2,0.3,0.4,0.4c-1.1,0.9-1.3,2.5-0.4,3.6c0.1,0.1,0.2,0.3,0.4,0.4c-0.6,0.5-0.9,1.2-1,2c0,3.3,6.5,5,13,5
			c5.9,0,11.8-1.4,12.8-4.2c1,0.1,2.1,0.2,3.2,0.2c6.5,0,13-1.7,13-5c0-0.8-0.4-1.5-1-2c1.1-0.9,1.3-2.5,0.4-3.6
			c-0.1-0.1-0.2-0.3-0.4-0.4c1.1-0.9,1.3-2.5,0.4-3.6c-0.1-0.1-0.2-0.3-0.4-0.4c1.1-0.9,1.3-2.5,0.4-3.6c-0.1-0.1-0.2-0.3-0.4-0.4
			c1.1-0.9,1.3-2.5,0.4-3.6c-0.1-0.1-0.2-0.3-0.4-0.4c1.1-0.9,1.3-2.5,0.4-3.6c-0.1-0.1-0.2-0.3-0.4-0.4c1.1-0.9,1.3-2.5,0.4-3.6
			C92.3,58.2,92.2,58.1,92,58z M31,37H9V25h22V37z M24,16c0-3.9,3.1-7,7-7s7,3.1,7,7v7h-7C27.1,23,24,19.9,24,16z M45,37H33V25h12
			V37z M40,23v-7c0-3.9,3.1-7,7-7s7,3.1,7,7s-3.1,7-7,7H40z M47,37V25h22v12H47z M51,76c0,0.2,0,0.3,0.1,0.5C51,76.3,51,76.2,51,76z
			 M64,91c-7.1,0-11-2-11-3c0-0.2,0.2-0.5,0.7-0.8C56.2,88.4,60.1,89,64,89s7.8-0.6,10.3-1.8c0.4,0.3,0.7,0.6,0.7,0.8
			C75,89,71.1,91,64,91z M64,87c-7.1,0-11-2-11-3c0-0.2,0.2-0.5,0.7-0.8C56.2,84.4,60.1,85,64,85s7.8-0.6,10.3-1.8
			c0.4,0.3,0.7,0.6,0.7,0.8C75,85,71.1,87,64,87z M64,83c-7.1,0-11-2-11-3c0-0.2,0.2-0.5,0.7-0.8C56.2,80.4,60.1,81,64,81
			s7.8-0.6,10.3-1.8c0.4,0.3,0.7,0.6,0.7,0.8C75,81,71.1,83,64,83z M64,79c-7.1,0-11-2-11-3c0-0.2,0.2-0.5,0.7-0.8
			C56.2,76.4,60.1,77,64,77s7.8-0.6,10.3-1.8c0.4,0.3,0.7,0.6,0.7,0.8C75,77,71.1,79,64,79z M64,75c-7.1,0-11-2-11-3
			c0-0.2,0.2-0.5,0.7-0.8C56.2,72.4,60.1,73,64,73s7.8-0.6,10.3-1.8c0.4,0.3,0.7,0.6,0.7,0.8C75,73,71.1,75,64,75z M64,71
			c-7.1,0-11-2-11-3s3.9-3,11-3s11,2,11,3S71.1,71,64,71z M80,87c-1.2,0-2.3-0.1-3.3-0.2c-0.2-0.3-0.4-0.6-0.6-0.8
			c0.3-0.3,0.6-0.7,0.8-1.2c1,0.1,2.1,0.2,3.2,0.2c3.9,0,7.8-0.6,10.3-1.8c0.4,0.3,0.7,0.6,0.7,0.8C91,85,87.1,87,80,87z M80,83
			c-1.2,0-2.3-0.1-3.3-0.2c-0.2-0.3-0.4-0.6-0.6-0.8c0.3-0.3,0.6-0.7,0.8-1.2c1,0.1,2.1,0.2,3.2,0.2c3.9,0,7.8-0.6,10.3-1.8
			c0.4,0.3,0.7,0.6,0.7,0.8C91,81,87.1,83,80,83z M80,79c-1.2,0-2.3-0.1-3.3-0.2c-0.2-0.3-0.4-0.6-0.6-0.8c0.3-0.3,0.6-0.7,0.8-1.2
			c1,0.1,2.1,0.2,3.2,0.2c3.9,0,7.8-0.6,10.3-1.8c0.4,0.3,0.7,0.6,0.7,0.8C91,77,87.1,79,80,79z M80,75c-1.2,0-2.3-0.1-3.3-0.2
			c-0.2-0.3-0.4-0.6-0.6-0.8c0.3-0.3,0.6-0.7,0.8-1.2c1,0.1,2.1,0.2,3.2,0.2c3.9,0,7.8-0.6,10.3-1.8c0.4,0.3,0.7,0.6,0.7,0.8
			C91,73,87.1,75,80,75z M80,71c-1.2,0-2.3-0.1-3.3-0.2c-0.2-0.3-0.4-0.6-0.6-0.8c0.3-0.3,0.6-0.7,0.8-1.2c1,0.1,2.1,0.2,3.2,0.2
			c3.9,0,7.8-0.6,10.3-1.8c0.4,0.3,0.7,0.6,0.7,0.8C91,69,87.1,71,80,71z M80,67c-1.2,0-2.3-0.1-3.3-0.2c-0.6-1.2-2.2-2.1-4.2-2.7
			c2.5,0.6,5,0.9,7.5,0.9c3.9,0,7.8-0.6,10.3-1.8c0.4,0.3,0.7,0.6,0.7,0.8C91,65,87.1,67,80,67z M69.4,63.4c0.1-0.1,0.2-0.2,0.3-0.3
			c0.6,0.3,1.2,0.5,1.8,0.7C70.8,63.7,70.1,63.5,69.4,63.4z M80,63c-7.1,0-11-2-11-3c0-0.2,0.2-0.5,0.7-0.8C72.2,60.4,76.1,61,80,61
			s7.8-0.6,10.3-1.8c0.4,0.3,0.7,0.6,0.7,0.8C91,61,87.1,63,80,63z M80,59c-7.1,0-11-2-11-3s3.9-3,11-3s11,2,11,3S87.1,59,80,59z"/>
	</g>
</g>
<path id="Rectangle_4709" fill="none" d="M0,0h100v100H0V0z"/>
<g>
	<g>
		<path fill="#A09EA5" d="M39.7,52.5v-4.2c-0.4,0-0.8,0.1-1.2,0.2c0.1-0.2,0.2-0.6,0.1-1c-0.1-0.3-0.2-0.6-0.5-0.8
			c-0.1-0.1-0.2-0.2-0.4-0.2c-0.1,0-0.3,0-0.4,0c-0.3,0.1-0.5,0.3-0.6,0.6c-0.1,0.3-0.1,0.6,0.1,0.9c0.1,0.3,0.4,0.5,0.6,0.7
			c0,0,0.1,0,0.1,0.1c-0.6,0.2-1.1,0.5-1.6,0.8l-1.6-2.9c0.3-1.4-0.9-2-1.9-1.3c-1.1,0.7-0.5,2.2,0.7,2.2c0,0,1.9,2.2,2.2,2.5
			c-0.5,0.4-0.9,0.8-1.3,1.2c-0.2-1.1-1.5-1.7-2.1-0.9c-0.6,0.8,0.4,1.9,1.4,1.7c-0.3,0.5-0.6,1-0.9,1.6l-3-1.4c0,0,0-0.1,0-0.1
			c-0.3-0.7-1-0.9-1.6-0.7c-0.6,0.2-1,1.1-0.6,1.8c0.4,0.7,1.2,0.8,1.7,0.4c0,0,3,0.7,3.2,0.8c-0.2,0.6-0.3,1.2-0.3,1.8
			c-0.7-0.8-2.2-0.6-2.2,0.4c-0.1,0.9,1.4,1.4,2.2,0.6c0,0.6,0.1,1.2,0.2,1.8c-0.2,0-3.2,0.5-3.2,0.5c-0.9-0.7-2.2,0.1-1.9,1.3
			c0.4,1.2,1.9,1.2,2.3,0.1l3-1.2c0.2,0.6,0.4,1.1,0.7,1.7c-0.5-0.2-1.4,0.2-1.6,0.8c-0.5,1.3,1.6,1.9,2.2,0c0.5,0.7,1,1.2,1.7,1.7
			c-0.3,0.4-1.9,2.1-2.2,2.5c-1.2,0.1-1.7,1.4-0.7,2.2c1.1,0.7,2.2-0.3,1.9-1.4c0.1-0.2,1.5-2.7,1.6-2.9c0.5,0.3,1,0.6,1.6,0.8
			c-0.9,0.4-1.1,1.9-0.2,2.3c1,0.3,1.6-1,1.2-1.9c0.4,0.1,0.8,0.2,1.2,0.2v-4.2c-2.1-0.4-3.6-2.3-3.7-4.5c0-1.3,0.5-2.5,1.4-3.3
			C38,53.1,38.8,52.6,39.7,52.5z M37.5,48.5C37.4,48.5,37.4,48.4,37.5,48.5c-0.2-0.2-0.3-0.3-0.4-0.5c-0.1-0.2-0.1-0.5,0-0.7
			s0.2-0.4,0.4-0.4c0.4-0.1,0.9,0.2,1,0.7C38.6,48.2,38.1,48.9,37.5,48.5z M33.7,47.1c-0.9,0.7-2.2-0.7-1.1-1.5
			C33.7,44.8,34.6,46.5,33.7,47.1z M28.6,53.5L28.6,53.5c-0.7,0.2-1.4-0.5-1.1-1.2c0.3-0.7,1.2-0.9,1.6-0.2h0
			C29.6,52.6,29.3,53.4,28.6,53.5z M30.9,57.4c-1.3,0-1.2-1.6,0-1.4c0.2,0,0.4,0.1,0.5,0.2h0C32.2,56.6,31.8,57.3,30.9,57.4z
			 M28.8,61.1c-0.5,0.6-1.4,0.4-1.6-0.3c-0.2-0.8,0.5-1.4,1.2-1.1c0.4,0.1,0.6,0.5,0.6,0.9C29.1,60.7,29,60.9,28.8,61.1z M33.3,62.5
			c-0.5,1.1-1.9,0.7-1.6-0.2C32.1,61.3,33.8,61.4,33.3,62.5z M33.6,51.7c-0.1,0.2-0.4,0.2-0.6,0.2c0,0,0,0,0,0
			c-0.7,0-1.3-0.8-0.8-1.3C32.8,49.7,34.2,51,33.6,51.7z M32.6,68.4c-1.1-0.8,0.2-2.2,1.1-1.5C34.7,67.5,33.7,69.2,32.6,68.4z
			 M38,65.4c0.8,0.2,0.5,2.1-0.6,1.8C36.4,66.8,37.3,65.1,38,65.4z"/>
	</g>
	<g>
		<path fill="#A09EA5" d="M41.6,61.5v4.2c2-0.2,3.9-1.2,5.3-2.5l-2.9-2.9C43.3,60.9,42.5,61.3,41.6,61.5z"/>
	</g>
	<g>
		<path fill="#A09EA5" d="M41.6,48.2v4.2c0.9,0.2,1.7,0.6,2.3,1.3l2.9-2.9C45.5,49.4,43.7,48.5,41.6,48.2z"/>
	</g>
	<g>
		<path fill="#A09EA5" d="M31.9,56.2c-0.7-0.8-2.2-0.6-2.2,0.4c-0.1,0.9,1.4,1.4,2.2,0.6c0,0,0-0.1,0-0.2
			C31.9,56.8,31.9,56.5,31.9,56.2z M30.9,57.4c-1.3,0-1.2-1.6,0-1.4c0.2,0,0.4,0.1,0.5,0.2h0C32.2,56.6,31.8,57.3,30.9,57.4z
			 M32.1,59c-0.2,0-3.2,0.5-3.2,0.5c-0.9-0.7-2.2,0.1-1.9,1.3c0.4,1.2,1.9,1.2,2.3,0.1l3-1.2C32.2,59.5,32.2,59.2,32.1,59z
			 M28.8,61.1c-0.5,0.6-1.4,0.4-1.6-0.3c-0.2-0.8,0.5-1.4,1.2-1.1c0.4,0.1,0.6,0.5,0.6,0.9C29.1,60.7,29,60.9,28.8,61.1z M32.5,53.7
			l-3-1.4c0,0,0-0.1,0-0.1c-0.3-0.7-1-0.9-1.6-0.7c-0.6,0.2-1,1.1-0.6,1.8c0.4,0.7,1.2,0.8,1.7,0.4c0,0,3,0.7,3.2,0.8
			C32.3,54.1,32.5,53.9,32.5,53.7C32.5,53.6,32.5,53.7,32.5,53.7z M28.6,53.5L28.6,53.5c-0.7,0.2-1.4-0.5-1.1-1.2
			c0.3-0.7,1.2-0.9,1.6-0.2h0C29.6,52.6,29.3,53.4,28.6,53.5z M33.1,61.4c-0.5-0.2-1.4,0.2-1.6,0.8c-0.5,1.3,1.6,1.9,2.2,0
			C33.4,62,33.2,61.7,33.1,61.4z M33.3,62.5c-0.5,1.1-1.9,0.7-1.6-0.2C32.1,61.3,33.8,61.4,33.3,62.5z M35.9,64.4
			c-0.2-0.1-0.4-0.3-0.6-0.4c-0.3,0.4-1.9,2.1-2.2,2.5c-1.2,0.1-1.7,1.4-0.7,2.2c1.1,0.7,2.2-0.3,1.9-1.4
			C34.4,67.1,35.8,64.6,35.9,64.4z M32.6,68.4c-1.1-0.8,0.2-2.2,1.1-1.5C34.7,67.5,33.7,69.2,32.6,68.4z M38.5,65.5
			c-0.4-0.1-0.8-0.2-1.1-0.4c0,0,0.1,0,0.2,0.1c-0.9,0.4-1.1,1.9-0.2,2.3C38.3,67.7,39,66.5,38.5,65.5z M37.4,67.2
			c-1-0.4-0.2-2.1,0.6-1.8C38.8,65.6,38.5,67.5,37.4,67.2z M38.5,48.5c0.1-0.2,0.2-0.6,0.1-1c-0.1-0.3-0.2-0.6-0.5-0.8
			c-0.1-0.1-0.2-0.2-0.4-0.2c-0.1,0-0.3,0-0.4,0c-0.3,0.1-0.5,0.3-0.6,0.6c-0.1,0.3-0.1,0.6,0.1,0.9c0.1,0.3,0.4,0.5,0.6,0.7
			c0,0,0.1,0,0.1,0.1c-0.5,0.2-0.9,0.4-1.4,0.7c1.1-0.6,2.3-1,3.5-1.2v0C39.3,48.3,38.9,48.4,38.5,48.5z M37.5,48.5
			C37.4,48.5,37.4,48.4,37.5,48.5c-0.2-0.2-0.3-0.3-0.4-0.5c-0.1-0.2-0.1-0.5,0-0.7s0.2-0.4,0.4-0.4c0.4-0.1,0.9,0.2,1,0.7
			C38.6,48.2,38.1,48.9,37.5,48.5z M34.3,46.7c0.3-1.4-0.9-2-1.9-1.3c-1.1,0.7-0.5,2.2,0.7,2.2c0,0,1.9,2.2,2.2,2.5
			c-0.4,0.3-0.8,0.7-1.1,1.1c0.6-0.6,1.3-1.2,2-1.6c-0.1,0-0.2,0.1-0.2,0.1L34.3,46.7z M33.7,47.1c-0.9,0.7-2.2-0.7-1.1-1.5
			C33.7,44.8,34.6,46.5,33.7,47.1z M31.9,50.4c-0.6,0.8,0.4,1.9,1.4,1.7c0,0.1-0.1,0.1-0.1,0.2c0.3-0.4,0.6-0.8,0.9-1.2
			c-0.1,0.1-0.1,0.1-0.2,0.2C33.8,50.2,32.5,49.6,31.9,50.4z M33.6,51.7c-0.1,0.2-0.4,0.2-0.6,0.2c0,0,0,0,0,0
			c-0.7,0-1.3-0.8-0.8-1.3C32.8,49.7,34.2,51,33.6,51.7z"/>
	</g>
	<g>
		<path fill="#A09EA5" d="M39.7,71L39.7,71c-0.5,0-1-0.4-1-1V44c0-0.5,0.4-1,1-1h0c0.5,0,1,0.4,1,1v26.1C40.7,70.6,40.2,71,39.7,71z
			"/>
	</g>
</g>
</svg>
