<?xml version="1.0" encoding="utf-8"?>
<!-- Generator: Adobe Illustrator 17.1.0, SVG Export Plug-In . SVG Version: 6.00 Build 0)  -->
<!DOCTYPE svg PUBLIC "-//W3C//DTD SVG 1.1//EN" "http://www.w3.org/Graphics/SVG/1.1/DTD/svg11.dtd">
<svg version="1.1" id="ic_empty_zcov19" xmlns="http://www.w3.org/2000/svg" xmlns:xlink="http://www.w3.org/1999/xlink" x="0px"
	 y="0px" viewBox="0 0 100 100" enable-background="new 0 0 100 100" xml:space="preserve">
<g id="Group_9086">
	<path id="Path_19031" fill="#D6D6D6" d="M50,26c-13.3,0-24,10.7-24,24s10.7,24,24,24s24-10.7,24-24S63.3,26,50,26z M50,68
		c-9.9,0-18-8.1-18-18s8.1-18,18-18s18,8.1,18,18S59.9,68,50,68z"/>
	<g id="Group_9085">
		<g id="Group_9083">
			<path id="Path_19032" fill="#666666" d="M50,31c-10.5,0-19,8.5-19,19s8.5,19,19,19s19-8.5,19-19C69,39.5,60.5,31,50,31z M50,67
				c-9.4,0-17-7.6-17-17s7.6-17,17-17s17,7.6,17,17C67,59.4,59.4,67,50,67z"/>
			<path id="Rectangle_4749" fill="#666666" d="M83,56h2v4h-2V56z"/>
			<path id="Rectangle_4750" fill="#666666" d="M83,44h2v8h-2V44z"/>
			<path id="Rectangle_4751" fill="#666666" d="M15,48h2v8h-2V48z"/>
			<path id="Rectangle_4752" fill="#666666" d="M15,40h2v4h-2V40z"/>
			<path id="Path_19033" fill="#666666" d="M95.2,71H85v-7h-2v9h7.8L76,90.5L61.2,73H68v-2h-4.5c11.6-7.5,15-22.9,7.5-34.5
				c-6.4-9.9-18.9-14-29.9-9.8L24,6.5L4.8,29H15v7h2v-9H9.2L24,9.5L38.8,27H32v2h4.5c-11.6,7.5-15,22.9-7.5,34.5
				c6.4,9.9,18.9,14,29.9,9.8L76,93.5L95.2,71z M27,50c0-12.7,10.3-23,23-23s23,10.3,23,23S62.7,73,50,73C37.3,73,27,62.7,27,50z"/>
		</g>
		<g id="Group_9084">
			<path id="Path_19035" fill="#666666" d="M52.8,38H41v1.7h9.2l-9.5,11.2v1.4H53v-1.7l-9.4,0l9.3-11L52.8,38z"/>
		</g>
	</g>
</g>
<path id="Rectangle_4753" fill="none" d="M0,0h100v100H0V0z"/>
<path fill="#666666" d="M60.3,54.6L58.8,56c-1-1.1-2.1-1.6-3.4-1.6c-1.1,0-2,0.4-2.7,1.1s-1.1,1.6-1.1,2.7c0,0.7,0.2,1.4,0.5,2
	c0.3,0.6,0.8,1,1.4,1.4c0.6,0.3,1.2,0.5,2,0.5c0.6,0,1.2-0.1,1.7-0.3c0.5-0.2,1.1-0.6,1.7-1.3l1.4,1.5c-0.8,0.8-1.6,1.4-2.3,1.7
	c-0.7,0.3-1.6,0.5-2.5,0.5c-1.7,0-3.1-0.5-4.2-1.6c-1.1-1.1-1.7-2.5-1.7-4.2c0-1.1,0.3-2.1,0.8-3c0.5-0.9,1.2-1.6,2.2-2.1
	s1.9-0.8,3-0.8c0.9,0,1.8,0.2,2.7,0.6C59,53.3,59.7,53.8,60.3,54.6z"/>
</svg>
